<svg width="642" height="103" viewBox="0 0 642 103" fill="none" xmlns="http://www.w3.org/2000/svg">
<g filter="url(#filter0_d_1_4083)">
<path d="M1.96518 41.8447C1.96518 35.423 3.35449 29.7114 6.13311 24.7099C8.91174 19.6466 12.7709 15.7257 17.7107 12.947C22.7122 10.1067 28.3621 8.68649 34.6603 8.68649C42.3787 8.68649 48.9857 10.7241 54.4812 14.7995C59.9767 18.8748 63.6506 24.432 65.5031 31.4712H48.0903C46.7937 28.7543 44.9412 26.6858 42.5331 25.2656C40.1867 23.8454 37.5007 23.1353 34.4751 23.1353C29.5971 23.1353 25.6452 24.8334 22.6196 28.2295C19.594 31.6256 18.0812 36.164 18.0812 41.8447C18.0812 47.5255 19.594 52.0639 22.6196 55.46C25.6452 58.8561 29.5971 60.5541 34.4751 60.5541C37.5007 60.5541 40.1867 59.8441 42.5331 58.4239C44.9412 57.0037 46.7937 54.9351 48.0903 52.2183H65.5031C63.6506 59.2575 59.9767 64.8147 54.4812 68.89C48.9857 72.9036 42.3787 74.9104 34.6603 74.9104C28.3621 74.9104 22.7122 73.5211 17.7107 70.7424C12.7709 67.9021 8.91174 63.9811 6.13311 58.9796C3.35449 53.9781 1.96518 48.2665 1.96518 41.8447ZM98.7279 75.1882C93.6646 75.1882 89.0953 74.1077 85.02 71.9465C81.0064 69.7854 77.8264 66.698 75.48 62.6844C73.1954 58.6709 72.0531 53.9781 72.0531 48.6061C72.0531 43.2958 73.2263 38.6339 75.5727 34.6203C77.9191 30.545 81.1299 27.4268 85.2052 25.2656C89.2805 23.1045 93.8498 22.0239 98.9131 22.0239C103.976 22.0239 108.546 23.1045 112.621 25.2656C116.696 27.4268 119.907 30.545 122.254 34.6203C124.6 38.6339 125.773 43.2958 125.773 48.6061C125.773 53.9163 124.569 58.6091 122.161 62.6844C119.815 66.698 116.573 69.7854 112.436 71.9465C108.36 74.1077 103.791 75.1882 98.7279 75.1882ZM98.7279 61.4804C101.753 61.4804 104.316 60.3689 106.415 58.146C108.577 55.9231 109.657 52.7431 109.657 48.6061C109.657 44.469 108.607 41.289 106.508 39.0661C104.47 36.8432 101.939 35.7318 98.9131 35.7318C95.8258 35.7318 93.2632 36.8432 91.2256 39.0661C89.1879 41.2273 88.1691 44.4073 88.1691 48.6061C88.1691 52.7431 89.1571 55.9231 91.133 58.146C93.1706 60.3689 95.7023 61.4804 98.7279 61.4804ZM131.026 48.5134C131.026 43.2032 132.014 38.5413 133.99 34.5277C136.028 30.5141 138.776 27.4268 142.234 25.2656C145.691 23.1045 149.551 22.0239 153.811 22.0239C157.207 22.0239 160.295 22.734 163.073 24.1542C165.914 25.5744 168.137 27.4885 169.742 29.8967V5.90787H185.58V74.4473H169.742V67.0376C168.26 69.5075 166.13 71.4834 163.351 72.9653C160.634 74.4473 157.454 75.1882 153.811 75.1882C149.551 75.1882 145.691 74.1077 142.234 71.9465C138.776 69.7236 136.028 66.6054 133.99 62.5918C132.014 58.5165 131.026 53.8237 131.026 48.5134ZM169.742 48.6061C169.742 44.6542 168.631 41.536 166.408 39.2514C164.246 36.9667 161.591 35.8244 158.442 35.8244C155.293 35.8244 152.607 36.9667 150.384 39.2514C148.223 41.4743 147.143 44.5616 147.143 48.5134C147.143 52.4653 148.223 55.6144 150.384 57.9608C152.607 60.2454 155.293 61.3877 158.442 61.3877C161.591 61.3877 164.246 60.2454 166.408 57.9608C168.631 55.6761 169.742 52.5579 169.742 48.6061ZM245.757 47.7725C245.757 49.2544 245.664 50.7981 245.479 52.4035H209.635C209.882 55.6144 210.901 58.0843 212.691 59.8132C214.544 61.4804 216.797 62.3139 219.453 62.3139C223.404 62.3139 226.152 60.6468 227.696 57.3124H244.553C243.688 60.7085 242.114 63.765 239.829 66.4819C237.606 69.1988 234.797 71.329 231.401 72.8727C228.005 74.4164 224.207 75.1882 220.008 75.1882C214.945 75.1882 210.437 74.1077 206.486 71.9465C202.534 69.7854 199.446 66.698 197.224 62.6844C195.001 58.6709 193.889 53.9781 193.889 48.6061C193.889 43.2341 194.97 38.5413 197.131 34.5277C199.354 30.5141 202.441 27.4268 206.393 25.2656C210.345 23.1045 214.883 22.0239 220.008 22.0239C225.01 22.0239 229.456 23.0736 233.346 25.173C237.236 27.2724 240.261 30.2671 242.423 34.1572C244.645 38.0473 245.757 42.5857 245.757 47.7725ZM229.548 43.6045C229.548 40.8877 228.622 38.7265 226.77 37.1211C224.917 35.5157 222.602 34.7129 219.823 34.7129C217.168 34.7129 214.914 35.4848 213.062 37.0285C211.271 38.5721 210.16 40.7642 209.727 43.6045H229.548ZM294.588 62.9623H270.321L266.431 74.4473H249.852L273.377 9.42746H291.716L315.242 74.4473H298.478L294.588 62.9623ZM290.512 50.7363L282.454 26.9328L274.489 50.7363H290.512ZM343.427 75.1882C338.919 75.1882 334.906 74.4164 331.386 72.8727C327.867 71.329 325.088 69.2296 323.05 66.5745C321.013 63.8576 319.87 60.832 319.623 57.4977H335.276C335.462 59.2883 336.295 60.7394 337.777 61.8508C339.259 62.9623 341.081 63.518 343.242 63.518C345.218 63.518 346.73 63.1475 347.78 62.4066C348.892 61.6038 349.447 60.585 349.447 59.3501C349.447 57.8681 348.675 56.7876 347.132 56.1083C345.588 55.3674 343.087 54.5647 339.63 53.7002C335.925 52.8357 332.837 51.9404 330.367 51.0142C327.898 50.0262 325.767 48.5134 323.977 46.4758C322.186 44.3764 321.291 41.5669 321.291 38.0473C321.291 35.0834 322.093 32.3974 323.699 29.9893C325.366 27.5194 327.774 25.5744 330.923 24.1542C334.134 22.734 337.931 22.0239 342.316 22.0239C348.799 22.0239 353.893 23.6293 357.598 26.8402C361.365 30.051 363.526 34.3116 364.081 39.6218H349.447C349.2 37.8312 348.398 36.411 347.039 35.3613C345.742 34.3116 344.014 33.7867 341.852 33.7867C340 33.7867 338.58 34.1572 337.592 34.8982C336.604 35.5774 336.11 36.5345 336.11 37.7694C336.11 39.2514 336.882 40.3628 338.425 41.1038C340.031 41.8447 342.501 42.5857 345.835 43.3267C349.663 44.3146 352.782 45.3026 355.19 46.2905C357.598 47.2167 359.697 48.7604 361.488 50.9216C363.34 53.021 364.298 55.8614 364.359 59.4427C364.359 62.4683 363.495 65.1852 361.766 67.5933C360.099 69.9397 357.66 71.7921 354.449 73.1506C351.3 74.509 347.626 75.1882 343.427 75.1882ZM382.014 17.3928C379.236 17.3928 376.951 16.5901 375.16 14.9847C373.432 13.3175 372.567 11.2799 372.567 8.87174C372.567 6.40185 373.432 4.36419 375.16 2.75876C376.951 1.09158 379.236 0.257996 382.014 0.257996C384.731 0.257996 386.954 1.09158 388.683 2.75876C390.474 4.36419 391.369 6.40185 391.369 8.87174C391.369 11.2799 390.474 13.3175 388.683 14.9847C386.954 16.5901 384.731 17.3928 382.014 17.3928ZM389.887 22.7649V74.4473H374.049V22.7649H389.887ZM398.216 48.5134C398.216 43.2032 399.204 38.5413 401.18 34.5277C403.217 30.5141 405.965 27.4268 409.423 25.2656C412.881 23.1045 416.74 22.0239 421.001 22.0239C424.644 22.0239 427.824 22.7649 430.54 24.2468C433.319 25.7287 435.449 27.6738 436.931 30.0819V22.7649H452.769V74.4473H436.931V67.1302C435.388 69.5384 433.226 71.4834 430.448 72.9653C427.731 74.4473 424.551 75.1882 420.908 75.1882C416.709 75.1882 412.881 74.1077 409.423 71.9465C405.965 69.7236 403.217 66.6054 401.18 62.5918C399.204 58.5165 398.216 53.8237 398.216 48.5134ZM436.931 48.6061C436.931 44.6542 435.82 41.536 433.597 39.2514C431.436 36.9667 428.781 35.8244 425.632 35.8244C422.482 35.8244 419.796 36.9667 417.574 39.2514C415.412 41.4743 414.332 44.5616 414.332 48.5134C414.332 52.4653 415.412 55.6144 417.574 57.9608C419.796 60.2454 422.482 61.3877 425.632 61.3877C428.781 61.3877 431.436 60.2454 433.597 57.9608C435.82 55.6761 436.931 52.5579 436.931 48.6061ZM471.637 75.1882C468.859 75.1882 466.574 74.3855 464.783 72.7801C463.054 71.1129 462.19 69.0753 462.19 66.6671C462.19 64.1972 463.054 62.1287 464.783 60.4615C466.574 58.7943 468.859 57.9608 471.637 57.9608C474.354 57.9608 476.577 58.7943 478.306 60.4615C480.097 62.1287 480.992 64.1972 480.992 66.6671C480.992 69.0753 480.097 71.1129 478.306 72.7801C476.577 74.3855 474.354 75.1882 471.637 75.1882ZM513.893 75.1882C508.83 75.1882 504.261 74.1077 500.186 71.9465C496.172 69.7854 492.992 66.698 490.646 62.6844C488.361 58.6709 487.219 53.9781 487.219 48.6061C487.219 43.2958 488.392 38.6339 490.738 34.6203C493.085 30.545 496.295 27.4268 500.371 25.2656C504.446 23.1045 509.015 22.0239 514.079 22.0239C519.142 22.0239 523.711 23.1045 527.787 25.2656C531.862 27.4268 535.073 30.545 537.419 34.6203C539.766 38.6339 540.939 43.2958 540.939 48.6061C540.939 53.9163 539.735 58.6091 537.326 62.6844C534.98 66.698 531.738 69.7854 527.601 71.9465C523.526 74.1077 518.957 75.1882 513.893 75.1882ZM513.893 61.4804C516.919 61.4804 519.482 60.3689 521.581 58.146C523.742 55.9231 524.823 52.7431 524.823 48.6061C524.823 44.469 523.773 41.289 521.674 39.0661C519.636 36.8432 517.104 35.7318 514.079 35.7318C510.991 35.7318 508.429 36.8432 506.391 39.0661C504.353 41.2273 503.335 44.4073 503.335 48.6061C503.335 52.7431 504.323 55.9231 506.299 58.146C508.336 60.3689 510.868 61.4804 513.893 61.4804ZM565.179 31.3786C567.032 28.5382 569.347 26.3153 572.126 24.7099C574.904 23.0427 577.992 22.2091 581.388 22.2091V38.9735H577.035C573.083 38.9735 570.119 39.838 568.143 41.5669C566.167 43.2341 565.179 46.1979 565.179 50.4585V74.4473H549.341V22.7649H565.179V31.3786ZM608.594 22.0239C612.237 22.0239 615.417 22.7649 618.134 24.2468C620.912 25.7287 623.043 27.6738 624.525 30.0819V22.7649H640.363V74.3546C640.363 79.1092 639.406 83.4006 637.491 87.2289C635.639 91.119 632.768 94.2064 628.878 96.491C625.049 98.7757 620.264 99.918 614.522 99.918C606.865 99.918 600.659 98.0964 595.905 94.4534C591.15 90.872 588.433 85.994 587.754 79.8193H603.407C603.901 81.7952 605.074 83.3389 606.927 84.4503C608.779 85.6235 611.064 86.2101 613.781 86.2101C617.053 86.2101 619.647 85.253 621.561 83.3389C623.537 81.4864 624.525 78.4917 624.525 74.3546V67.0376C622.981 69.4457 620.851 71.4217 618.134 72.9653C615.417 74.4473 612.237 75.1882 608.594 75.1882C604.333 75.1882 600.474 74.1077 597.016 71.9465C593.558 69.7236 590.811 66.6054 588.773 62.5918C586.797 58.5165 585.809 53.8237 585.809 48.5134C585.809 43.2032 586.797 38.5413 588.773 34.5277C590.811 30.5141 593.558 27.4268 597.016 25.2656C600.474 23.1045 604.333 22.0239 608.594 22.0239ZM624.525 48.6061C624.525 44.6542 623.413 41.536 621.19 39.2514C619.029 36.9667 616.374 35.8244 613.225 35.8244C610.076 35.8244 607.39 36.9667 605.167 39.2514C603.006 41.4743 601.925 44.5616 601.925 48.5134C601.925 52.4653 603.006 55.6144 605.167 57.9608C607.39 60.2454 610.076 61.3877 613.225 61.3877C616.374 61.3877 619.029 60.2454 621.19 57.9608C623.413 55.6761 624.525 52.5579 624.525 48.6061Z" fill="url(#paint0_radial_1_4083)" shape-rendering="crispEdges"/>
</g>
<defs>
<filter id="filter0_d_1_4083" x="0.678444" y="0.258057" width="640.97" height="102.233" filterUnits="userSpaceOnUse" color-interpolation-filters="sRGB">
<feFlood flood-opacity="0" result="BackgroundImageFix"/>
<feColorMatrix in="SourceAlpha" type="matrix" values="0 0 0 0 0 0 0 0 0 0 0 0 0 0 0 0 0 0 127 0" result="hardAlpha"/>
<feOffset dy="1.2864"/>
<feGaussianBlur stdDeviation="0.6432"/>
<feComposite in2="hardAlpha" operator="out"/>
<feColorMatrix type="matrix" values="0 0 0 0 0 0 0 0 0 0 0 0 0 0 0 0 0 0 0.25 0"/>
<feBlend mode="normal" in2="BackgroundImageFix" result="effect1_dropShadow_1_4083"/>
<feBlend mode="normal" in="SourceGraphic" in2="effect1_dropShadow_1_4083" result="shape"/>
</filter>
<radialGradient id="paint0_radial_1_4083" cx="0" cy="0" r="1" gradientUnits="userSpaceOnUse" gradientTransform="translate(41.4059 42.1134) scale(557.843 2121.31)">
<stop stop-color="#FF9933"/>
<stop offset="0.185062" stop-color="#FEA54B" stop-opacity="0.749358"/>
<stop offset="0.309255" stop-color="#FEA347" stop-opacity="0.789846"/>
<stop offset="0.378978" stop-color="#E8AC9B" stop-opacity="0.752307"/>
<stop offset="0.429091" stop-color="#9C9BF1" stop-opacity="0.753422"/>
<stop offset="0.546101" stop-color="#9898F6" stop-opacity="0.756653"/>
<stop offset="0.701054" stop-color="#45AFEC" stop-opacity="0.760245"/>
<stop offset="0.773345" stop-color="#48F378" stop-opacity="0.76077"/>
<stop offset="0.827833" stop-color="#4DE48A" stop-opacity="0.761166"/>
<stop offset="0.920805" stop-color="#379581" stop-opacity="0.763017"/>
<stop offset="1" stop-color="#138808" stop-opacity="0.77"/>
</radialGradient>
</defs>
</svg>
