<svg width="324" height="370" viewBox="0 0 324 370" fill="none" xmlns="http://www.w3.org/2000/svg">
<path d="M0.618284 47.6843C0.618284 39.1843 2.45722 31.6243 6.13508 25.0041C9.81295 18.3022 14.9211 13.1123 21.4595 9.43446C28.0797 5.67486 35.558 3.79507 43.8945 3.79507C54.1108 3.79507 62.8559 6.49217 70.1299 11.8864C77.4039 17.2806 82.2669 24.6363 84.7188 33.9536H61.6709C59.9545 30.3574 57.5026 27.6195 54.3151 25.7397C51.2094 23.8599 47.6541 22.92 43.6493 22.92C37.1926 22.92 31.9619 25.1676 27.9571 29.6627C23.9523 34.1579 21.9499 40.1651 21.9499 47.6843C21.9499 55.2035 23.9523 61.2106 27.9571 65.7058C31.9619 70.201 37.1926 72.4486 43.6493 72.4486C47.6541 72.4486 51.2094 71.5087 54.3151 69.6289C57.5026 67.7491 59.9545 65.0111 61.6709 61.415H84.7188C82.2669 70.7322 77.4039 78.088 70.1299 83.4822C62.8559 88.7946 54.1108 91.4509 43.8945 91.4509C35.558 91.4509 28.0797 89.6119 21.4595 85.9341C14.9211 82.1745 9.81295 76.9846 6.13508 70.3644C2.45722 63.7443 0.618284 56.1842 0.618284 47.6843ZM128.696 91.8187C121.994 91.8187 115.946 90.3884 110.552 87.5278C105.24 84.6672 101.03 80.5807 97.9246 75.2683C94.9006 69.9558 93.3886 63.7443 93.3886 56.6337C93.3886 49.6049 94.9415 43.4343 98.0472 38.1218C101.153 32.7276 105.403 28.6002 110.797 25.7397C116.191 22.8791 122.239 21.4488 128.941 21.4488C135.643 21.4488 141.691 22.8791 147.085 25.7397C152.48 28.6002 156.73 32.7276 159.835 38.1218C162.941 43.4343 164.494 49.6049 164.494 56.6337C164.494 63.6625 162.9 69.8741 159.713 75.2683C156.607 80.5807 152.316 84.6672 146.84 87.5278C141.446 90.3884 135.398 91.8187 128.696 91.8187ZM128.696 73.6745C132.701 73.6745 136.093 72.2034 138.872 69.2611C141.732 66.3188 143.162 62.1097 143.162 56.6337C143.162 51.1578 141.773 46.9487 138.994 44.0064C136.297 41.0641 132.946 39.593 128.941 39.593C124.855 39.593 121.463 41.0641 118.766 44.0064C116.069 46.867 114.72 51.0761 114.72 56.6337C114.72 62.1097 116.028 66.3188 118.643 69.2611C121.34 72.2034 124.691 73.6745 128.696 73.6745ZM171.447 56.5111C171.447 49.4823 172.755 43.3117 175.371 37.9992C178.068 32.6867 181.705 28.6002 186.282 25.7397C190.858 22.8791 195.967 21.4488 201.606 21.4488C206.101 21.4488 210.188 22.3887 213.866 24.2685C217.625 26.1483 220.567 28.682 222.692 31.8694V0.117205H243.656V90.8379H222.692V81.0302C220.731 84.2995 217.911 86.9148 214.233 88.8764C210.637 90.8379 206.428 91.8187 201.606 91.8187C195.967 91.8187 190.858 90.3884 186.282 87.5278C181.705 84.5855 178.068 80.4581 175.371 75.1457C172.755 69.7515 171.447 63.54 171.447 56.5111ZM222.692 56.6337C222.692 51.403 221.221 47.2756 218.279 44.2516C215.418 41.2276 211.904 39.7156 207.736 39.7156C203.568 39.7156 200.012 41.2276 197.07 44.2516C194.209 47.1939 192.779 51.2804 192.779 56.5111C192.779 61.7419 194.209 65.9101 197.07 69.0159C200.012 72.0399 203.568 73.5519 207.736 73.5519C211.904 73.5519 215.418 72.0399 218.279 69.0159C221.221 65.9919 222.692 61.8645 222.692 56.6337ZM323.308 55.5304C323.308 57.4919 323.185 59.5352 322.94 61.6602H275.496C275.823 65.9101 277.171 69.1793 279.541 71.4678C281.993 73.6745 284.976 74.7779 288.491 74.7779C293.722 74.7779 297.359 72.5712 299.402 68.1577H321.714C320.57 72.6529 318.486 76.6985 315.462 80.2947C312.519 83.8908 308.801 86.7105 304.306 88.7538C299.81 90.797 294.784 91.8187 289.226 91.8187C282.524 91.8187 276.558 90.3884 271.327 87.5278C266.097 84.6672 262.01 80.5807 259.068 75.2683C256.126 69.9558 254.654 63.7443 254.654 56.6337C254.654 49.5232 256.085 43.3117 258.945 37.9992C261.888 32.6867 265.974 28.6002 271.205 25.7397C276.436 22.8791 282.443 21.4488 289.226 21.4488C295.846 21.4488 301.731 22.8382 306.88 25.6171C312.029 28.3959 316.034 32.3598 318.894 37.5088C321.837 42.6578 323.308 48.665 323.308 55.5304ZM301.854 50.0136C301.854 46.4174 300.628 43.5569 298.176 41.4319C295.724 39.3069 292.659 38.2444 288.981 38.2444C285.467 38.2444 282.484 39.266 280.032 41.3093C277.661 43.3526 276.19 46.254 275.618 50.0136H301.854ZM83.7874 197.636H51.6674L46.5183 212.838H24.5737L55.713 126.776H79.9869L111.126 212.838H88.9364L83.7874 197.636ZM78.3932 181.453L67.7274 149.946L57.1842 181.453H78.3932ZM148.433 213.819C142.466 213.819 137.154 212.797 132.495 210.754C127.837 208.711 124.159 205.932 121.462 202.417C118.764 198.821 117.252 194.816 116.926 190.403H137.644C137.889 192.773 138.993 194.694 140.954 196.165C142.916 197.636 145.327 198.372 148.187 198.372C150.803 198.372 152.805 197.881 154.195 196.9C155.666 195.838 156.401 194.489 156.401 192.855C156.401 190.893 155.38 189.463 153.336 188.564C151.293 187.583 147.983 186.521 143.406 185.376C138.502 184.232 134.416 183.047 131.147 181.821C127.877 180.514 125.058 178.511 122.688 175.814C120.317 173.035 119.132 169.316 119.132 164.658C119.132 160.735 120.195 157.18 122.32 153.992C124.526 150.723 127.714 148.148 131.882 146.269C136.132 144.389 141.159 143.449 146.961 143.449C155.543 143.449 162.286 145.574 167.19 149.824C172.175 154.074 175.036 159.713 175.771 166.742H156.401C156.074 164.372 155.012 162.492 153.214 161.103C151.497 159.713 149.209 159.018 146.348 159.018C143.897 159.018 142.017 159.509 140.709 160.49C139.401 161.389 138.748 162.655 138.748 164.29C138.748 166.252 139.769 167.723 141.812 168.704C143.937 169.684 147.207 170.665 151.62 171.646C156.687 172.953 160.815 174.261 164.002 175.569C167.19 176.795 169.969 178.838 172.339 181.699C174.791 184.477 176.057 188.237 176.139 192.977C176.139 196.982 174.995 200.578 172.706 203.766C170.5 206.872 167.271 209.323 163.021 211.122C158.853 212.92 153.99 213.819 148.433 213.819ZM199.508 137.319C195.83 137.319 192.806 136.257 190.436 134.132C188.147 131.925 187.003 129.228 187.003 126.04C187.003 122.771 188.147 120.074 190.436 117.949C192.806 115.742 195.83 114.639 199.508 114.639C203.104 114.639 206.046 115.742 208.335 117.949C210.705 120.074 211.89 122.771 211.89 126.04C211.89 129.228 210.705 131.925 208.335 134.132C206.046 136.257 203.104 137.319 199.508 137.319ZM209.929 144.43V212.838H188.965V144.43H209.929ZM220.953 178.511C220.953 171.482 222.26 165.312 224.876 159.999C227.573 154.687 231.21 150.6 235.787 147.74C240.364 144.879 245.472 143.449 251.111 143.449C255.933 143.449 260.142 144.43 263.738 146.391C267.416 148.353 270.236 150.927 272.198 154.115V144.43H293.161V212.838H272.198V203.153C270.154 206.34 267.294 208.915 263.616 210.876C260.02 212.838 255.811 213.819 250.989 213.819C245.431 213.819 240.364 212.388 235.787 209.528C231.21 206.586 227.573 202.458 224.876 197.146C222.26 191.751 220.953 185.54 220.953 178.511ZM272.198 178.634C272.198 173.403 270.726 169.276 267.784 166.252C264.924 163.228 261.409 161.716 257.241 161.716C253.073 161.716 249.517 163.228 246.575 166.252C243.715 169.194 242.284 173.28 242.284 178.511C242.284 183.742 243.715 187.91 246.575 191.016C249.517 194.04 253.073 195.552 257.241 195.552C261.409 195.552 264.924 194.04 267.784 191.016C270.726 187.992 272.198 183.864 272.198 178.634ZM54.9262 336.819C51.2483 336.819 48.2243 335.756 45.8541 333.631C43.5657 331.424 42.4214 328.727 42.4214 325.54C42.4214 322.271 43.5657 319.533 45.8541 317.326C48.2243 315.119 51.2483 314.016 54.9262 314.016C58.5223 314.016 61.4646 315.119 63.7531 317.326C66.1232 319.533 67.3083 322.271 67.3083 325.54C67.3083 328.727 66.1232 331.424 63.7531 333.631C61.4646 335.756 58.5223 336.819 54.9262 336.819ZM110.858 336.819C104.156 336.819 98.1076 335.388 92.7134 332.528C87.4009 329.667 83.1918 325.581 80.086 320.268C77.062 314.956 75.55 308.744 75.55 301.634C75.55 294.605 77.1029 288.434 80.2086 283.122C83.3144 277.728 87.5644 273.6 92.9586 270.74C98.3528 267.879 104.401 266.449 111.103 266.449C117.805 266.449 123.853 267.879 129.247 270.74C134.641 273.6 138.891 277.728 141.997 283.122C145.103 288.434 146.655 294.605 146.655 301.634C146.655 308.663 145.062 314.874 141.874 320.268C138.768 325.581 134.478 329.667 129.002 332.528C123.607 335.388 117.559 336.819 110.858 336.819ZM110.858 318.675C114.862 318.675 118.254 317.203 121.033 314.261C123.894 311.319 125.324 307.11 125.324 301.634C125.324 296.158 123.934 291.949 121.156 289.006C118.458 286.064 115.107 284.593 111.103 284.593C107.016 284.593 103.624 286.064 100.927 289.006C98.2302 291.867 96.8816 296.076 96.8816 301.634C96.8816 307.11 98.1893 311.319 100.805 314.261C103.502 317.203 106.853 318.675 110.858 318.675ZM178.741 278.831C181.193 275.071 184.258 272.129 187.936 270.004C191.613 267.797 195.7 266.694 200.195 266.694V288.884H194.433C189.202 288.884 185.279 290.028 182.664 292.316C180.049 294.523 178.741 298.446 178.741 304.086V335.838H157.777V267.43H178.741V278.831ZM236.206 266.449C241.028 266.449 245.237 267.43 248.833 269.391C252.511 271.353 255.331 273.927 257.292 277.115V267.43H278.256V335.715C278.256 342.009 276.989 347.689 274.455 352.756C272.004 357.905 268.203 361.992 263.054 365.016C257.987 368.04 251.653 369.552 244.052 369.552C233.917 369.552 225.703 367.141 219.41 362.319C213.117 357.578 209.521 351.121 208.622 342.948H229.34C229.994 345.564 231.547 347.607 233.999 349.078C236.451 350.631 239.475 351.408 243.071 351.408C247.403 351.408 250.835 350.141 253.369 347.607C255.984 345.155 257.292 341.191 257.292 335.715V326.03C255.249 329.218 252.429 331.833 248.833 333.876C245.237 335.838 241.028 336.819 236.206 336.819C230.566 336.819 225.458 335.388 220.881 332.528C216.304 329.586 212.667 325.458 209.97 320.146C207.355 314.751 206.047 308.54 206.047 301.511C206.047 294.482 207.355 288.312 209.97 282.999C212.667 277.687 216.304 273.6 220.881 270.74C225.458 267.879 230.566 266.449 236.206 266.449ZM257.292 301.634C257.292 296.403 255.821 292.276 252.879 289.252C250.018 286.228 246.504 284.716 242.335 284.716C238.167 284.716 234.612 286.228 231.67 289.252C228.809 292.194 227.379 296.28 227.379 301.511C227.379 306.742 228.809 310.91 231.67 314.016C234.612 317.04 238.167 318.552 242.335 318.552C246.504 318.552 250.018 317.04 252.879 314.016C255.821 310.992 257.292 306.864 257.292 301.634Z" fill="url(#paint0_radial_1_5091)" fill-opacity="0.1"/>
<defs>
<radialGradient id="paint0_radial_1_5091" cx="0" cy="0" r="1" gradientUnits="userSpaceOnUse" gradientTransform="translate(31.4588 170.638) scale(258.415 3831.02)">
<stop stop-color="#FF9933"/>
<stop offset="0.185062" stop-color="#FEA54B" stop-opacity="0.749358"/>
<stop offset="0.309255" stop-color="#FEA347" stop-opacity="0.789846"/>
<stop offset="0.378978" stop-color="#E8AC9B" stop-opacity="0.752307"/>
<stop offset="0.429091" stop-color="#9C9BF1" stop-opacity="0.753422"/>
<stop offset="0.546101" stop-color="#9898F6" stop-opacity="0.756653"/>
<stop offset="0.701054" stop-color="#45AFEC" stop-opacity="0.760245"/>
<stop offset="0.773345" stop-color="#48F378" stop-opacity="0.76077"/>
<stop offset="0.827833" stop-color="#4DE48A" stop-opacity="0.761166"/>
<stop offset="0.920805" stop-color="#379581" stop-opacity="0.763017"/>
<stop offset="1" stop-color="#138808" stop-opacity="0.77"/>
</radialGradient>
</defs>
</svg>
