<svg width="583" height="50" viewBox="0 0 583 50" fill="none" xmlns="http://www.w3.org/2000/svg">
<path d="M23.119 29.0315L24.0631 28.7017L23.8289 28.0315H23.119V29.0315ZM10.879 29.0315V28.0315H10.1691L9.93499 28.7017L10.879 29.0315ZM8.09502 36.9995V37.9995H8.80491L9.03906 37.3294L8.09502 36.9995ZM2.14302 36.9995L1.20086 36.6644L0.725927 37.9995H2.14302V36.9995ZM14.095 3.39951V2.39951H13.3894L13.1529 3.06437L14.095 3.39951ZM19.903 3.39951L20.8452 3.06437L20.6087 2.39951H19.903V3.39951ZM31.855 36.9995V37.9995H33.2721L32.7972 36.6644L31.855 36.9995ZM25.903 36.9995L24.959 37.3294L25.1931 37.9995H25.903V36.9995ZM21.199 23.6555V24.6555H22.6058L22.1435 23.3268L21.199 23.6555ZM17.023 11.6555L17.9675 11.3268L17.0284 8.62842L16.0798 11.3235L17.023 11.6555ZM12.799 23.6555L11.8558 23.3235L11.3869 24.6555H12.799V23.6555ZM23.119 28.0315H10.879V30.0315H23.119V28.0315ZM9.93499 28.7017L7.15099 36.6697L9.03906 37.3294L11.8231 29.3614L9.93499 28.7017ZM8.09502 35.9995H2.14302V37.9995H8.09502V35.9995ZM3.08519 37.3347L15.0372 3.73465L13.1529 3.06437L1.20086 36.6644L3.08519 37.3347ZM14.095 4.39951H19.903V2.39951H14.095V4.39951ZM18.9609 3.73465L30.9129 37.3347L32.7972 36.6644L20.8452 3.06437L18.9609 3.73465ZM31.855 35.9995H25.903V37.9995H31.855V35.9995ZM26.8471 36.6697L24.0631 28.7017L22.175 29.3614L24.959 37.3294L26.8471 36.6697ZM22.1435 23.3268L17.9675 11.3268L16.0786 11.9842L20.2546 23.9842L22.1435 23.3268ZM16.0798 11.3235L11.8558 23.3235L13.7423 23.9875L17.9663 11.9875L16.0798 11.3235ZM12.799 24.6555H21.199V22.6555H12.799V24.6555ZM31.1196 12.9995V11.9995H29.7859L30.1597 13.2798L31.1196 12.9995ZM36.9276 12.9995L37.8986 12.7603L37.7111 11.9995H36.9276V12.9995ZM41.0556 29.7515L40.0847 29.9908L40.9986 33.6996L42.0193 30.0187L41.0556 29.7515ZM45.5676 13.4795V12.4795H44.8072L44.604 13.2123L45.5676 13.4795ZM50.5596 13.4795L51.524 13.2149L51.3223 12.4795H50.5596V13.4795ZM55.0236 29.7515L54.0593 30.0161L55.0699 33.7001L55.994 29.9934L55.0236 29.7515ZM59.1996 12.9995V11.9995H58.4183L58.2293 12.7576L59.1996 12.9995ZM65.0076 12.9995L65.9676 13.2798L66.3414 11.9995H65.0076V12.9995ZM57.9997 36.9995V37.9995H58.7494L58.9596 37.2798L57.9997 36.9995ZM53.0076 36.9995L52.0541 37.3008L52.2749 37.9995H53.0076V36.9995ZM48.0636 21.3515L49.0172 21.0502L48.0636 18.0322L47.1101 21.0502L48.0636 21.3515ZM43.1196 36.9995V37.9995H43.8524L44.0732 37.3008L43.1196 36.9995ZM38.1276 36.9995L37.1677 37.2798L37.3779 37.9995H38.1276V36.9995ZM31.1196 13.9995H36.9276V11.9995H31.1196V13.9995ZM35.9567 13.2388L40.0847 29.9908L42.0266 29.5123L37.8986 12.7603L35.9567 13.2388ZM42.0193 30.0187L46.5313 13.7467L44.604 13.2123L40.092 29.4843L42.0193 30.0187ZM45.5676 14.4795H50.5596V12.4795H45.5676V14.4795ZM49.5953 13.7441L54.0593 30.0161L55.988 29.4869L51.524 13.2149L49.5953 13.7441ZM55.994 29.9934L60.17 13.2414L58.2293 12.7576L54.0533 29.5096L55.994 29.9934ZM59.1996 13.9995H65.0076V11.9995H59.1996V13.9995ZM64.0477 12.7192L57.0397 36.7192L58.9596 37.2798L65.9676 13.2798L64.0477 12.7192ZM57.9997 35.9995H53.0076V37.9995H57.9997V35.9995ZM53.9612 36.6982L49.0172 21.0502L47.1101 21.6528L52.0541 37.3008L53.9612 36.6982ZM47.1101 21.0502L42.1661 36.6982L44.0732 37.3008L49.0172 21.6528L47.1101 21.0502ZM43.1196 35.9995H38.1276V37.9995H43.1196V35.9995ZM39.0876 36.7192L32.0796 12.7192L30.1597 13.2798L37.1677 37.2798L39.0876 36.7192ZM72.3865 35.7995L71.8783 36.6607L71.8866 36.6656L71.8949 36.6703L72.3865 35.7995ZM67.9705 31.2395L67.0761 31.6867L67.0806 31.6957L67.0853 31.7046L67.9705 31.2395ZM67.9225 18.7115L68.817 19.1587L68.817 19.1587L67.9225 18.7115ZM71.9545 14.2955L72.4804 15.1462L72.4914 15.1392L71.9545 14.2955ZM83.9065 14.0075L83.3894 14.8635L83.3972 14.8681L83.9065 14.0075ZM87.4105 17.7515L86.5125 18.1914L86.5161 18.1987L86.5198 18.206L87.4105 17.7515ZM88.2265 26.2955V27.2955H89.0379L89.2051 26.5015L88.2265 26.2955ZM72.7225 26.2955V25.2955H71.5596L71.7338 26.4453L72.7225 26.2955ZM75.2185 31.0475L74.6007 31.8338L74.6066 31.8384L74.6125 31.8429L75.2185 31.0475ZM87.2665 30.6155L88.2649 30.5585L88.171 28.9149L86.7557 29.7558L87.2665 30.6155ZM87.5545 35.6555L88.0237 36.5386L88.5894 36.2381L88.5529 35.5985L87.5545 35.6555ZM83.9545 36.9995L84.1861 37.9723L84.1943 37.9704L84.2024 37.9683L83.9545 36.9995ZM82.5625 22.2635V23.2635H83.5625V22.2635H82.5625ZM81.5065 18.9515L80.7001 19.5429L80.7001 19.5429L81.5065 18.9515ZM74.6905 18.8075L75.3847 19.5274L75.3847 19.5274L74.6905 18.8075ZM72.8665 22.2635L71.8903 22.0466L71.6199 23.2635H72.8665V22.2635ZM79.5385 36.4795C76.8888 36.4795 74.6822 35.9471 72.8781 34.9287L71.8949 36.6703C74.0589 37.8919 76.6203 38.4795 79.5385 38.4795V36.4795ZM72.8948 34.9383C71.0923 33.8746 69.7559 32.4874 68.8558 30.7744L67.0853 31.7046C68.1692 33.7676 69.7767 35.4205 71.8783 36.6607L72.8948 34.9383ZM68.865 30.7923C67.9804 29.0231 67.5305 27.0502 67.5305 24.8555H65.5305C65.5305 27.3328 66.0407 29.6159 67.0761 31.6867L68.865 30.7923ZM67.5305 24.8555C67.5305 22.7582 67.9638 20.865 68.817 19.1587L67.0281 18.2643C66.0252 20.27 65.5305 22.4729 65.5305 24.8555H67.5305ZM68.817 19.1587C69.6622 17.4683 70.8788 16.1362 72.4803 15.1461L71.4287 13.4449C69.5103 14.6308 68.0389 16.2427 67.0281 18.2643L68.817 19.1587ZM72.4914 15.1392C74.0658 14.1373 75.9686 13.6155 78.2425 13.6155V11.6155C75.6525 11.6155 73.3632 12.2138 71.4176 13.4518L72.4914 15.1392ZM78.2425 13.6155C80.3451 13.6155 82.0438 14.0505 83.3894 14.8634L84.4236 13.1516C82.6972 12.1085 80.6199 11.6155 78.2425 11.6155V13.6155ZM83.3972 14.8681C84.8051 15.7013 85.8341 16.8064 86.5125 18.1914L88.3086 17.3116C87.4509 15.5606 86.144 14.1697 84.4158 13.1469L83.3972 14.8681ZM86.5198 18.206C87.2404 19.6185 87.6105 21.22 87.6105 23.0315H89.6105C89.6105 20.939 89.1806 19.0205 88.3013 17.297L86.5198 18.206ZM87.6105 23.0315C87.6105 23.9055 87.4936 24.9226 87.248 26.0895L89.2051 26.5015C89.4714 25.2364 89.6105 24.0775 89.6105 23.0315H87.6105ZM88.2265 25.2955H72.7225V27.2955H88.2265V25.2955ZM71.7338 26.4453C72.082 28.7432 73.0098 30.5838 74.6007 31.8338L75.8363 30.2612C74.7393 29.3992 74.0031 28.0718 73.7112 26.1457L71.7338 26.4453ZM74.6125 31.8429C76.151 33.0152 77.9866 33.5835 80.0665 33.5835V31.5835C78.3704 31.5835 76.974 31.1279 75.8246 30.2521L74.6125 31.8429ZM80.0665 33.5835C82.8366 33.5835 85.4133 32.8799 87.7774 31.4752L86.7557 29.7558C84.7038 30.9751 82.4805 31.5835 80.0665 31.5835V33.5835ZM86.2682 30.6726L86.5562 35.7126L88.5529 35.5985L88.2649 30.5585L86.2682 30.6726ZM87.0854 34.7724C86.1451 35.2719 85.0223 35.6942 83.7067 36.0307L84.2024 37.9683C85.6388 37.6009 86.916 37.1271 88.0237 36.5386L87.0854 34.7724ZM83.7229 36.0267C82.4656 36.3261 81.0725 36.4795 79.5385 36.4795V38.4795C81.2046 38.4795 82.7554 38.313 84.1861 37.9723L83.7229 36.0267ZM83.5625 22.2635C83.5625 20.8138 83.149 19.5003 82.3129 18.3601L80.7001 19.5429C81.272 20.3227 81.5625 21.2172 81.5625 22.2635H83.5625ZM82.3129 18.3601C81.3758 17.0822 79.9489 16.5115 78.2425 16.5115V18.5115C79.4802 18.5115 80.2293 18.9008 80.7001 19.5429L82.3129 18.3601ZM78.2425 16.5115C76.5622 16.5115 75.1122 17.0117 73.9964 18.0877L75.3847 19.5274C76.0608 18.8754 76.9789 18.5115 78.2425 18.5115V16.5115ZM73.9964 18.0877C72.9346 19.1116 72.2449 20.451 71.8903 22.0466L73.8427 22.4804C74.1281 21.196 74.6545 20.2314 75.3847 19.5274L73.9964 18.0877ZM72.8665 23.2635H82.5625V21.2635H72.8665V23.2635ZM95.2656 37.0475L95.0408 38.0219L95.0461 38.0231L95.2656 37.0475ZM91.3776 35.7035L90.383 35.6003L90.3086 36.3174L90.9655 36.6146L91.3776 35.7035ZM91.9056 30.6155L92.4171 29.7562L91.0725 28.9558L90.911 30.5123L91.9056 30.6155ZM95.6496 32.4395L95.31 33.3801L95.3255 33.3857L95.3411 33.3907L95.6496 32.4395ZM101.986 28.6475L101.386 29.4475L101.399 29.4573L101.412 29.4667L101.986 28.6475ZM98.5296 26.9675L98.8886 26.0342L98.8805 26.0311L98.8724 26.0281L98.5296 26.9675ZM93.2976 24.0395L92.5905 24.7466L92.5957 24.7517L92.6009 24.7568L93.2976 24.0395ZM94.0176 14.4875L94.6424 15.2684L94.6517 15.2608L94.0176 14.4875ZM107.938 14.3915L108.932 14.4947L109 13.8389L108.424 13.5179L107.938 14.3915ZM107.41 19.4795L106.845 20.3048L108.231 21.2531L108.404 19.5827L107.41 19.4795ZM103.954 17.5595L103.563 18.4801L103.573 18.4842L103.954 17.5595ZM98.1936 17.5115L97.6082 16.7008L97.5971 16.7088L97.5862 16.7172L98.1936 17.5115ZM97.8576 20.7755L97.0894 21.4157L97.1045 21.4338L97.1205 21.4512L97.8576 20.7755ZM99.2976 21.8315L98.8319 22.7164L98.8505 22.7262L98.8696 22.7352L99.2976 21.8315ZM102.322 23.0795L101.961 24.0123L101.964 24.0132L102.322 23.0795ZM107.362 26.0555L106.633 26.7409L106.639 26.7463L106.644 26.7517L107.362 26.0555ZM106.45 35.6075L107.057 36.4019L107.057 36.4019L106.45 35.6075ZM99.4896 36.4795C98.0153 36.4795 96.6821 36.3412 95.4852 36.0719L95.0461 38.0231C96.4092 38.3298 97.892 38.4795 99.4896 38.4795V36.4795ZM95.4905 36.0731C94.3157 35.802 93.0825 35.3772 91.7898 34.7924L90.9655 36.6146C92.3608 37.2458 93.7196 37.717 95.0408 38.0219L95.4905 36.0731ZM92.3723 35.8067L92.9003 30.7187L90.911 30.5123L90.383 35.6003L92.3723 35.8067ZM91.3942 31.4748C92.7786 32.2988 94.0845 32.9375 95.31 33.3801L95.9893 31.499C94.9108 31.1095 93.7207 30.5322 92.4171 29.7562L91.3942 31.4748ZM95.3411 33.3907C96.6251 33.8071 97.9452 34.0155 99.2976 34.0155V32.0155C98.1541 32.0155 97.0422 31.8399 95.9582 31.4883L95.3411 33.3907ZM99.2976 34.0155C100.592 34.0155 101.736 33.8085 102.583 33.2509C103.504 32.6453 103.946 31.7125 103.946 30.6155H101.946C101.946 31.1185 101.779 31.3858 101.484 31.5801C101.116 31.8225 100.436 32.0155 99.2976 32.0155V34.0155ZM103.946 30.6155C103.946 29.4656 103.498 28.4854 102.559 27.8283L101.412 29.4667C101.753 29.7056 101.946 30.0375 101.946 30.6155H103.946ZM102.586 27.8475C101.826 27.2776 100.56 26.6769 98.8886 26.0342L98.1707 27.9009C99.8276 28.5381 100.866 29.0574 101.386 29.4475L102.586 27.8475ZM98.8724 26.0281C96.565 25.1862 94.9701 24.27 93.9944 23.3222L92.6009 24.7568C93.8652 25.985 95.7583 27.0208 98.1869 27.9069L98.8724 26.0281ZM94.0048 23.3324C93.1077 22.4353 92.6176 21.2049 92.6176 19.5275H90.6176C90.6176 21.6261 91.2476 23.4037 92.5905 24.7466L94.0048 23.3324ZM92.6176 19.5275C92.6176 17.7459 93.2837 16.3553 94.6423 15.2684L93.393 13.7066C91.5516 15.1797 90.6176 17.1491 90.6176 19.5275H92.6176ZM94.6517 15.2608C96.0234 14.136 97.9355 13.5195 100.498 13.5195V11.5195C97.6198 11.5195 95.2119 12.215 93.3836 13.7142L94.6517 15.2608ZM100.498 13.5195C103.058 13.5195 105.369 14.105 107.451 15.2651L108.424 13.5179C106.026 12.182 103.377 11.5195 100.498 11.5195V13.5195ZM106.943 14.2883L106.415 19.3763L108.404 19.5827L108.932 14.4947L106.943 14.2883ZM107.974 18.6542C106.714 17.7922 105.501 17.1151 104.334 16.6348L103.573 18.4842C104.583 18.8999 105.673 19.5029 106.845 20.3048L107.974 18.6542ZM104.344 16.6389C103.161 16.1368 101.907 15.8875 100.594 15.8875V17.8875C101.648 17.8875 102.635 18.0862 103.563 18.4801L104.344 16.6389ZM100.594 15.8875C99.4486 15.8875 98.4149 16.1182 97.6082 16.7008L98.7791 18.3222C99.1244 18.0728 99.6907 17.8875 100.594 17.8875V15.8875ZM97.5862 16.7172C96.7623 17.3472 96.3776 18.2513 96.3776 19.2875H98.3776C98.3776 18.7877 98.537 18.5078 98.8011 18.3059L97.5862 16.7172ZM96.3776 19.2875C96.3776 20.0769 96.5892 20.8154 97.0894 21.4157L98.6259 20.1353C98.4861 19.9676 98.3776 19.7141 98.3776 19.2875H96.3776ZM97.1205 21.4512C97.5706 21.9423 98.1527 22.3589 98.8319 22.7164L99.7634 20.9466C99.2266 20.6641 98.8487 20.3767 98.5948 20.0998L97.1205 21.4512ZM98.8696 22.7352C99.5135 23.0403 100.551 23.4676 101.961 24.0123L102.682 22.1467C101.276 21.6035 100.298 21.1987 99.7257 20.9278L98.8696 22.7352ZM101.964 24.0132C104.242 24.8871 105.76 25.8125 106.633 26.7409L108.09 25.3701C106.916 24.1225 105.073 23.064 102.68 22.1458L101.964 24.0132ZM106.644 26.7517C107.449 27.582 107.898 28.7353 107.898 30.3275H109.898C109.898 28.3358 109.322 26.6411 108.08 25.3594L106.644 26.7517ZM107.898 30.3275C107.898 32.3259 107.198 33.7762 105.842 34.8132L107.057 36.4019C108.965 34.9428 109.898 32.8731 109.898 30.3275H107.898ZM105.842 34.8132C104.449 35.8785 102.376 36.4795 99.4896 36.4795V38.4795C102.619 38.4795 105.186 37.8325 107.057 36.4019L105.842 34.8132ZM117.291 35.7995L116.774 36.6557L116.774 36.6557L117.291 35.7995ZM113.019 31.2875L113.904 30.8224L113.904 30.8224L113.019 31.2875ZM113.019 18.7595L113.907 19.2185L113.907 19.2185L113.019 18.7595ZM117.291 14.1995L117.807 15.0557L117.807 15.0557L117.291 14.1995ZM130.443 14.1995L129.926 15.0557L129.926 15.0557L130.443 14.1995ZM130.443 35.7995L130.959 36.6557L130.443 35.7995ZM128.427 30.5195L127.651 29.8882L127.646 29.8937L127.642 29.8993L128.427 30.5195ZM128.427 19.5275L127.635 20.139L127.643 20.149L127.651 20.1588L128.427 19.5275ZM119.259 19.5275L118.476 18.905L118.474 18.9073L119.259 19.5275ZM119.259 30.5195L118.474 31.1397L118.478 31.1453L118.483 31.1508L119.259 30.5195ZM123.867 36.4795C121.49 36.4795 119.483 35.9546 117.807 34.9433L116.774 36.6557C118.81 37.8845 121.187 38.4795 123.867 38.4795V36.4795ZM117.807 34.9433C116.105 33.916 114.809 32.5461 113.904 30.8224L112.133 31.7526C113.212 33.805 114.764 35.443 116.774 36.6557L117.807 34.9433ZM113.904 30.8224C112.992 29.0872 112.531 27.1683 112.531 25.0475H110.531C110.531 27.4707 111.061 29.7119 112.133 31.7526L113.904 30.8224ZM112.531 25.0475C112.531 22.9268 112.992 20.9893 113.907 19.2185L112.13 18.3005C111.061 20.3697 110.531 22.6242 110.531 25.0475H112.531ZM113.907 19.2185C114.814 17.4633 116.109 16.0805 117.807 15.0557L116.774 13.3433C114.76 14.5585 113.207 16.2158 112.13 18.3005L113.907 19.2185ZM117.807 15.0557C119.483 14.0445 121.49 13.5195 123.867 13.5195V11.5195C121.187 11.5195 118.81 12.1146 116.774 13.3433L117.807 15.0557ZM123.867 13.5195C126.243 13.5195 128.25 14.0445 129.926 15.0557L130.959 13.3433C128.923 12.1146 126.546 11.5195 123.867 11.5195V13.5195ZM129.926 15.0557C131.624 16.0805 132.919 17.4633 133.826 19.2185L135.603 18.3005C134.526 16.2158 132.973 14.5585 130.959 13.3433L129.926 15.0557ZM133.826 19.2185C134.741 20.9893 135.203 22.9268 135.203 25.0475H137.203C137.203 22.6242 136.672 20.3697 135.603 18.3005L133.826 19.2185ZM135.203 25.0475C135.203 27.1683 134.741 29.0872 133.829 30.8224L135.6 31.7526C136.672 29.7119 137.203 27.4707 137.203 25.0475H135.203ZM133.829 30.8224C132.924 32.5461 131.628 33.916 129.926 34.9433L130.959 36.6557C132.969 35.443 134.521 33.805 135.6 31.7526L133.829 30.8224ZM129.926 34.9433C128.25 35.9546 126.243 36.4795 123.867 36.4795V38.4795C126.546 38.4795 128.923 37.8845 130.959 36.6557L129.926 34.9433ZM123.867 33.5835C126.085 33.5835 127.91 32.7848 129.211 31.1397L127.642 29.8993C126.767 31.0062 125.552 31.5835 123.867 31.5835V33.5835ZM129.202 31.1508C130.504 29.5514 131.107 27.4838 131.107 25.0475H129.107C129.107 27.1552 128.589 28.7356 127.651 29.8882L129.202 31.1508ZM131.107 25.0475C131.107 22.5831 130.506 20.4979 129.202 18.8962L127.651 20.1588C128.587 21.3091 129.107 22.904 129.107 25.0475H131.107ZM129.218 18.9161C127.92 17.2369 126.094 16.4155 123.867 16.4155V18.4155C125.543 18.4155 126.757 19.0021 127.635 20.139L129.218 18.9161ZM123.867 16.4155C121.639 16.4155 119.803 17.2362 118.476 18.905L120.041 20.15C120.954 19.0028 122.19 18.4155 123.867 18.4155V16.4155ZM118.474 18.9073C117.208 20.5084 116.627 22.5893 116.627 25.0475H118.627C118.627 22.8977 119.133 21.2986 120.043 20.1477L118.474 18.9073ZM116.627 25.0475C116.627 27.4775 117.21 29.5409 118.474 31.1397L120.043 29.8993C119.131 28.7461 118.627 27.1615 118.627 25.0475H116.627ZM118.483 31.1508C119.813 32.7854 121.648 33.5835 123.867 33.5835V31.5835C122.181 31.5835 120.944 31.0056 120.034 29.8882L118.483 31.1508ZM174.378 15.5435L173.592 16.1619L173.597 16.169L173.603 16.176L174.378 15.5435ZM176.73 36.9995V37.9995H177.73V36.9995H176.73ZM170.778 36.9995H169.778V37.9995H170.778V36.9995ZM169.722 19.0955L170.554 18.5408L170.554 18.5408L169.722 19.0955ZM162.714 19.1435L163.511 19.7474L163.515 19.7417L163.519 19.7359L162.714 19.1435ZM161.514 36.9995V37.9995H162.514V36.9995H161.514ZM155.562 36.9995H154.562V37.9995H155.562V36.9995ZM154.458 19.0955L155.278 18.5237L155.278 18.5237L154.458 19.0955ZM146.298 19.5755L145.548 18.9133L145.298 19.197V19.5755H146.298ZM146.298 36.9995V37.9995H147.298V36.9995H146.298ZM140.346 36.9995H139.346V37.9995H140.346V36.9995ZM140.346 12.9995V11.9995H139.346V12.9995H140.346ZM145.434 12.9995L146.429 12.9L146.339 11.9995H145.434V12.9995ZM145.626 14.9195L144.63 15.019L144.801 16.7255L146.202 15.7365L145.626 14.9195ZM159.546 15.9275L158.719 16.4905L159.487 17.6178L160.331 16.5464L159.546 15.9275ZM162.81 13.4795L163.203 14.3987L163.203 14.3987L162.81 13.4795ZM167.274 13.6155C170.263 13.6155 172.298 14.5175 173.592 16.1619L175.163 14.9251C173.385 12.6655 170.684 11.6155 167.274 11.6155V13.6155ZM173.603 16.176C174.976 17.8571 175.73 20.3057 175.73 23.6555H177.73C177.73 20.0293 176.915 17.0699 175.152 14.911L173.603 16.176ZM175.73 23.6555V36.9995H177.73V23.6555H175.73ZM176.73 35.9995H170.778V37.9995H176.73V35.9995ZM171.778 36.9995V24.0875H169.778V36.9995H171.778ZM171.778 24.0875C171.778 21.7539 171.424 19.8461 170.554 18.5408L168.889 19.6502C169.427 20.4569 169.778 21.8771 169.778 24.0875H171.778ZM170.554 18.5408C169.615 17.1336 168.101 16.5115 166.266 16.5115V18.5115C167.63 18.5115 168.42 18.9454 168.889 19.6502L170.554 18.5408ZM166.266 16.5115C164.438 16.5115 162.928 17.1632 161.908 18.5511L163.519 19.7359C164.099 18.9479 164.957 18.5115 166.266 18.5115V16.5115ZM161.916 18.5397C160.935 19.8345 160.514 21.5844 160.514 23.6555H162.514C162.514 21.8226 162.892 20.5645 163.511 19.7474L161.916 18.5397ZM160.514 23.6555V36.9995H162.514V23.6555H160.514ZM161.514 35.9995H155.562V37.9995H161.514V35.9995ZM156.562 36.9995V24.0875H154.562V36.9995H156.562ZM156.562 24.0875C156.562 21.7488 156.19 19.833 155.278 18.5237L153.637 19.6673C154.197 20.47 154.562 21.8823 154.562 24.0875H156.562ZM155.278 18.5237C154.309 17.1335 152.791 16.5115 150.954 16.5115V18.5115C152.316 18.5115 153.134 18.9455 153.637 19.6673L155.278 18.5237ZM150.954 16.5115C148.788 16.5115 146.96 17.3157 145.548 18.9133L147.047 20.2377C148.067 19.0833 149.343 18.5115 150.954 18.5115V16.5115ZM145.298 19.5755V36.9995H147.298V19.5755H145.298ZM146.298 35.9995H140.346V37.9995H146.298V35.9995ZM141.346 36.9995V12.9995H139.346V36.9995H141.346ZM140.346 13.9995H145.434V11.9995H140.346V13.9995ZM144.438 13.099L144.63 15.019L146.621 14.82L146.429 12.9L144.438 13.099ZM146.202 15.7365C148.219 14.3128 150.371 13.6155 152.682 13.6155V11.6155C149.936 11.6155 147.384 12.4542 145.049 14.1025L146.202 15.7365ZM152.682 13.6155C155.48 13.6155 157.431 14.6002 158.719 16.4905L160.372 15.3645C158.652 12.8388 156.027 11.6155 152.682 11.6155V13.6155ZM160.331 16.5464C161.051 15.6329 161.999 14.9148 163.203 14.3987L162.416 12.5604C160.932 13.1963 159.704 14.1101 158.76 15.3086L160.331 16.5464ZM163.203 14.3987C164.409 13.8819 165.761 13.6155 167.274 13.6155V11.6155C165.522 11.6155 163.898 11.9251 162.416 12.5604L163.203 14.3987ZM186.48 35.7995L185.972 36.6607L185.98 36.6656L185.989 36.6703L186.48 35.7995ZM182.064 31.2395L181.17 31.6867L181.174 31.6957L181.179 31.7046L182.064 31.2395ZM182.016 18.7115L182.911 19.1587L182.911 19.1587L182.016 18.7115ZM186.048 14.2955L186.574 15.1462L186.585 15.1392L186.048 14.2955ZM198 14.0075L197.483 14.8635L197.491 14.8681L198 14.0075ZM201.504 17.7515L200.606 18.1914L200.61 18.1987L200.614 18.206L201.504 17.7515ZM202.32 26.2955V27.2955H203.132L203.299 26.5015L202.32 26.2955ZM186.816 26.2955V25.2955H185.653L185.828 26.4453L186.816 26.2955ZM189.312 31.0475L188.694 31.8338L188.7 31.8384L188.706 31.8429L189.312 31.0475ZM201.36 30.6155L202.359 30.5585L202.265 28.9149L200.849 29.7558L201.36 30.6155ZM201.648 35.6555L202.117 36.5386L202.683 36.2381L202.647 35.5985L201.648 35.6555ZM198.048 36.9995L198.28 37.9723L198.288 37.9704L198.296 37.9683L198.048 36.9995ZM196.656 22.2635V23.2635H197.656V22.2635H196.656ZM195.6 18.9515L194.794 19.5429L194.794 19.5429L195.6 18.9515ZM188.784 18.8075L189.478 19.5274L189.478 19.5274L188.784 18.8075ZM186.96 22.2635L185.984 22.0466L185.714 23.2635H186.96V22.2635ZM193.632 36.4795C190.983 36.4795 188.776 35.9471 186.972 34.9287L185.989 36.6703C188.153 37.8919 190.714 38.4795 193.632 38.4795V36.4795ZM186.989 34.9383C185.186 33.8746 183.85 32.4874 182.95 30.7744L181.179 31.7046C182.263 33.7676 183.87 35.4205 185.972 36.6607L186.989 34.9383ZM182.959 30.7923C182.074 29.0231 181.624 27.0502 181.624 24.8555H179.624C179.624 27.3328 180.134 29.6159 181.17 31.6867L182.959 30.7923ZM181.624 24.8555C181.624 22.7582 182.058 20.865 182.911 19.1587L181.122 18.2643C180.119 20.27 179.624 22.4729 179.624 24.8555H181.624ZM182.911 19.1587C183.756 17.4683 184.973 16.1362 186.574 15.1461L185.522 13.4449C183.604 14.6308 182.133 16.2427 181.122 18.2643L182.911 19.1587ZM186.585 15.1392C188.16 14.1373 190.062 13.6155 192.336 13.6155V11.6155C189.746 11.6155 187.457 12.2138 185.511 13.4518L186.585 15.1392ZM192.336 13.6155C194.439 13.6155 196.138 14.0505 197.483 14.8634L198.517 13.1516C196.791 12.1085 194.714 11.6155 192.336 11.6155V13.6155ZM197.491 14.8681C198.899 15.7013 199.928 16.8064 200.606 18.1914L202.402 17.3116C201.545 15.5606 200.238 14.1697 198.51 13.1469L197.491 14.8681ZM200.614 18.206C201.334 19.6185 201.704 21.22 201.704 23.0315H203.704C203.704 20.939 203.274 19.0205 202.395 17.297L200.614 18.206ZM201.704 23.0315C201.704 23.9055 201.587 24.9226 201.342 26.0895L203.299 26.5015C203.565 25.2364 203.704 24.0775 203.704 23.0315H201.704ZM202.32 25.2955H186.816V27.2955H202.32V25.2955ZM185.828 26.4453C186.176 28.7432 187.104 30.5838 188.694 31.8338L189.93 30.2612C188.833 29.3992 188.097 28.0718 187.805 26.1457L185.828 26.4453ZM188.706 31.8429C190.245 33.0152 192.08 33.5835 194.16 33.5835V31.5835C192.464 31.5835 191.068 31.1279 189.918 30.2521L188.706 31.8429ZM194.16 33.5835C196.93 33.5835 199.507 32.8799 201.871 31.4752L200.849 29.7558C198.798 30.9751 196.574 31.5835 194.16 31.5835V33.5835ZM200.362 30.6726L200.65 35.7126L202.647 35.5985L202.359 30.5585L200.362 30.6726ZM201.179 34.7724C200.239 35.2719 199.116 35.6942 197.8 36.0307L198.296 37.9683C199.733 37.6009 201.01 37.1271 202.117 36.5386L201.179 34.7724ZM197.817 36.0267C196.559 36.3261 195.166 36.4795 193.632 36.4795V38.4795C195.298 38.4795 196.849 38.313 198.28 37.9723L197.817 36.0267ZM197.656 22.2635C197.656 20.8138 197.243 19.5003 196.407 18.3601L194.794 19.5429C195.366 20.3227 195.656 21.2172 195.656 22.2635H197.656ZM196.407 18.3601C195.47 17.0822 194.043 16.5115 192.336 16.5115V18.5115C193.574 18.5115 194.323 18.9008 194.794 19.5429L196.407 18.3601ZM192.336 16.5115C190.656 16.5115 189.206 17.0117 188.09 18.0877L189.478 19.5274C190.155 18.8754 191.073 18.5115 192.336 18.5115V16.5115ZM188.09 18.0877C187.028 19.1116 186.339 20.451 185.984 22.0466L187.936 22.4804C188.222 21.196 188.748 20.2314 189.478 19.5274L188.09 18.0877ZM186.96 23.2635H196.656V21.2635H186.96V23.2635ZM222.109 36.9035L221.876 37.8762L221.88 37.8769L222.109 36.9035ZM217.069 35.2235L216.075 35.1139L215.998 35.8064L216.621 36.1179L217.069 35.2235ZM217.789 28.6955L218.225 27.7957L216.95 27.1776L216.795 28.5859L217.789 28.6955ZM232.909 30.8075L233.463 31.6396L233.473 31.6333L233.482 31.6267L232.909 30.8075ZM233.533 25.5275L232.752 26.1522L232.769 26.1737L232.787 26.1943L233.533 25.5275ZM231.277 23.9435L230.865 24.8549L230.877 24.8605L230.89 24.8657L231.277 23.9435ZM226.525 22.1195L226.857 21.1765L226.85 21.1738L226.525 22.1195ZM221.437 19.9115L220.925 20.7708L220.933 20.7753L220.941 20.7798L221.437 19.9115ZM218.221 16.8875L217.369 17.4116L217.377 17.4245L217.385 17.4371L218.221 16.8875ZM220.237 5.36751L220.877 6.13573L220.877 6.13573L220.237 5.36751ZM234.829 3.35151L234.606 4.32648L234.61 4.3273L234.829 3.35151ZM239.917 4.88751L240.912 4.98626L240.986 4.23541L240.285 3.9577L239.917 4.88751ZM239.293 11.1755L238.893 12.0923L240.152 12.6405L240.288 11.2743L239.293 11.1755ZM233.821 9.25551L233.556 10.2198L233.567 10.2229L233.578 10.2257L233.821 9.25551ZM224.077 14.3435L224.824 13.6791L224.824 13.6791L224.077 14.3435ZM226.141 15.7835L225.734 16.6974L225.747 16.7027L226.141 15.7835ZM230.077 17.1755L229.776 18.1294L229.777 18.1296L230.077 17.1755ZM238.525 21.3995L237.852 22.1395L237.859 22.1458L237.866 22.1521L238.525 21.3995ZM238.477 34.7435L239.207 35.4263L239.207 35.4263L238.477 34.7435ZM228.205 36.6715C226.406 36.6715 224.452 36.4276 222.338 35.9301L221.88 37.8769C224.117 38.4035 226.227 38.6715 228.205 38.6715V36.6715ZM222.341 35.9309C220.231 35.4271 218.635 34.8884 217.516 34.3291L216.621 36.1179C217.935 36.7746 219.698 37.3559 221.876 37.8762L222.341 35.9309ZM218.063 35.3331L218.783 28.8051L216.795 28.5859L216.075 35.1139L218.063 35.3331ZM217.352 29.5953C221.654 31.6809 225.52 32.7675 228.925 32.7675V30.7675C225.93 30.7675 222.371 29.8061 218.225 27.7957L217.352 29.5953ZM228.925 32.7675C230.73 32.7675 232.279 32.4293 233.463 31.6396L232.354 29.9755C231.619 30.4657 230.511 30.7675 228.925 30.7675V32.7675ZM233.482 31.6267C234.737 30.7483 235.349 29.4505 235.349 27.8795H233.349C233.349 28.8685 233 29.5228 232.335 29.9883L233.482 31.6267ZM235.349 27.8795C235.349 26.7195 235.014 25.6837 234.278 24.8607L232.787 26.1943C233.139 26.5873 233.349 27.1195 233.349 27.8795H235.349ZM234.314 24.9028C233.669 24.0978 232.763 23.4824 231.663 23.0213L230.89 24.8657C231.774 25.2366 232.372 25.6772 232.752 26.1522L234.314 24.9028ZM231.688 23.0321C230.655 22.5656 229.038 21.946 226.857 21.1765L226.192 23.0625C228.364 23.8291 229.914 24.4254 230.865 24.8549L231.688 23.0321ZM226.85 21.1738C224.84 20.4828 223.206 19.7706 221.933 19.0433L220.941 20.7798C222.356 21.5884 224.114 22.3482 226.2 23.0652L226.85 21.1738ZM221.948 19.0522C220.724 18.3237 219.767 17.4182 219.056 16.3379L217.385 17.4371C218.274 18.7888 219.461 19.8993 220.925 20.7708L221.948 19.0522ZM219.072 16.3634C218.421 15.3048 218.069 13.9757 218.069 12.3275H216.069C216.069 14.2633 216.484 15.9742 217.369 17.4116L219.072 16.3634ZM218.069 12.3275C218.069 9.72808 219.005 7.6956 220.877 6.13573L219.596 4.59929C217.244 6.55942 216.069 9.16694 216.069 12.3275H218.069ZM220.877 6.13573C222.745 4.57856 225.508 3.72751 229.309 3.72751V1.72751C225.238 1.72751 221.952 2.63646 219.596 4.59929L220.877 6.13573ZM229.309 3.72751C231.089 3.72751 232.855 3.92698 234.606 4.32647L235.051 2.37655C233.155 1.94404 231.24 1.72751 229.309 1.72751V3.72751ZM234.61 4.3273C236.422 4.73356 238.068 5.23114 239.549 5.81732L240.285 3.9577C238.694 3.32789 236.947 2.80146 235.047 2.37572L234.61 4.3273ZM238.922 4.78876L238.298 11.0768L240.288 11.2743L240.912 4.98626L238.922 4.78876ZM239.692 10.2587C237.67 9.37803 235.793 8.71771 234.063 8.28537L233.578 10.2257C235.177 10.6253 236.948 11.245 238.893 12.0923L239.692 10.2587ZM234.085 8.29119C232.37 7.82039 230.649 7.58351 228.925 7.58351V9.58351C230.464 9.58351 232.007 9.79463 233.556 10.2198L234.085 8.29119ZM228.925 7.58351C227.015 7.58351 225.403 7.89719 224.214 8.65069L225.284 10.3403C226.014 9.87783 227.186 9.58351 228.925 9.58351V7.58351ZM224.214 8.65069C222.959 9.44509 222.309 10.6466 222.309 12.1355H224.309C224.309 11.3204 224.618 10.7619 225.284 10.3403L224.214 8.65069ZM222.309 12.1355C222.309 13.2341 222.628 14.2195 223.329 15.0079L224.824 13.6791C224.501 13.3155 224.309 12.8289 224.309 12.1355H222.309ZM223.329 15.0079C223.955 15.7117 224.769 16.2683 225.735 16.6973L226.547 14.8697C225.784 14.5308 225.222 14.1273 224.824 13.6791L223.329 15.0079ZM225.747 16.7027C226.689 17.1065 228.039 17.5823 229.776 18.1294L230.377 16.2217C228.659 15.6807 227.384 15.2285 226.535 14.8644L225.747 16.7027ZM229.777 18.1296C233.595 19.3286 236.25 20.6829 237.852 22.1395L239.197 20.6596C237.28 18.9162 234.302 17.4544 230.376 16.2215L229.777 18.1296ZM237.866 22.1521C239.406 23.4997 240.213 25.3662 240.213 27.8795H242.213C242.213 24.8889 241.227 22.4353 239.183 20.6469L237.866 22.1521ZM240.213 27.8795C240.213 30.245 239.4 32.2903 237.746 34.0608L239.207 35.4263C241.201 33.2928 242.213 30.7621 242.213 27.8795H240.213ZM237.746 34.0608C236.222 35.6919 233.172 36.6715 228.205 36.6715V38.6715C233.285 38.6715 237.083 37.6991 239.207 35.4263L237.746 34.0608ZM246.647 35.7515L245.891 36.4057L245.9 36.4159L246.647 35.7515ZM245.111 0.999509V-0.000491142H244.111V0.999509H245.111ZM251.063 0.999509H252.063V-0.000491142H251.063V0.999509ZM251.255 31.4795L250.282 31.7086L250.29 31.7435L250.301 31.7778L251.255 31.4795ZM252.023 32.4395L251.681 33.3793L251.73 33.3971L251.781 33.4097L252.023 32.4395ZM253.943 32.5835L254.937 32.6907L255.057 31.5835H253.943V32.5835ZM253.415 37.4795V38.4795H254.313L254.409 37.5867L253.415 37.4795ZM251.255 36.4795C249.394 36.4795 248.172 35.9614 247.395 35.0871L245.9 36.4159C247.171 37.8456 249.02 38.4795 251.255 38.4795V36.4795ZM247.404 35.0974C246.565 34.1276 246.111 32.8542 246.111 31.1915H244.111C244.111 33.2408 244.681 35.0074 245.891 36.4057L247.404 35.0974ZM246.111 31.1915V0.999509H244.111V31.1915H246.111ZM245.111 1.99951H251.063V-0.000491142H245.111V1.99951ZM250.063 0.999509V28.7435H252.063V0.999509H250.063ZM250.063 28.7435C250.063 30.0276 250.125 31.0417 250.282 31.7086L252.229 31.2505C252.129 30.8293 252.063 30.0194 252.063 28.7435H250.063ZM250.301 31.7778C250.511 32.4521 250.925 33.1041 251.681 33.3793L252.365 31.4997C252.377 31.5043 252.372 31.5094 252.348 31.4788C252.318 31.4408 252.263 31.3533 252.21 31.1812L250.301 31.7778ZM251.781 33.4097C252.294 33.538 253.042 33.5835 253.943 33.5835V31.5835C253.053 31.5835 252.52 31.533 252.266 31.4694L251.781 33.4097ZM252.949 32.4763L252.421 37.3723L254.409 37.5867L254.937 32.6907L252.949 32.4763ZM253.415 36.4795H251.255V38.4795H253.415V36.4795ZM257.913 35.5595L257.205 36.2666L257.214 36.2752L257.223 36.2836L257.913 35.5595ZM258.201 25.2875L258.839 26.0571L258.849 26.0491L258.201 25.2875ZM263.529 22.5995L263.771 23.5697L263.778 23.5679L263.785 23.566L263.529 22.5995ZM269.433 21.6875L269.466 22.6869L270.477 22.6527L270.431 21.6421L269.433 21.6875ZM268.329 18.6635L267.64 19.3885L267.649 19.3969L267.658 19.405L268.329 18.6635ZM261.993 18.1835L261.722 17.2208L261.714 17.2232L261.993 18.1835ZM258.537 19.5755L257.542 19.6838L257.696 21.098L258.975 20.4743L258.537 19.5755ZM258.009 14.7275L257.573 13.8272L256.938 14.1344L257.014 14.8358L258.009 14.7275ZM273.177 14.9195L272.454 15.6115L272.462 15.6191L273.177 14.9195ZM275.577 31.3835L274.592 31.5573L274.598 31.5919L274.606 31.626L275.577 31.3835ZM276.153 32.3915L275.623 33.2395L275.682 33.2768L275.746 33.3053L276.153 32.3915ZM278.313 32.5835L279.307 32.6907L279.426 31.5835H278.313V32.5835ZM277.785 37.4795V38.4795H278.682L278.779 37.5867L277.785 37.4795ZM272.313 36.7595L271.816 37.6278L271.828 37.6345L271.84 37.641L272.313 36.7595ZM270.249 34.6955L271.123 34.2099L270.438 32.9773L269.501 34.0311L270.249 34.6955ZM267.081 36.7595L267.424 37.6987L267.437 37.694L267.081 36.7595ZM267.465 32.4875L267.816 33.4238L267.833 33.4175L267.849 33.4106L267.465 32.4875ZM269.481 31.1915L270.167 31.9185L270.481 31.6226V31.1915H269.481ZM269.481 25.7195H270.481V24.6683L269.431 24.7208L269.481 25.7195ZM262.953 32.2475L262.269 32.977L262.281 32.9888L262.294 33.0001L262.953 32.2475ZM262.905 36.4795C261.158 36.4795 259.747 35.9253 258.602 34.8354L257.223 36.2836C258.766 37.7537 260.683 38.4795 262.905 38.4795V36.4795ZM258.62 34.8524C257.53 33.763 256.945 32.2764 256.945 30.2795H254.945C254.945 32.6986 255.671 34.732 257.205 36.2666L258.62 34.8524ZM256.945 30.2795C256.945 28.4751 257.58 27.1015 258.839 26.0571L257.562 24.5179C255.813 25.9695 254.945 27.9239 254.945 30.2795H256.945ZM258.849 26.0491C260.227 24.8757 261.862 24.0469 263.771 23.5697L263.286 21.6294C261.099 22.1761 259.182 23.1393 257.552 24.526L258.849 26.0491ZM263.785 23.566C265.769 23.039 267.662 22.7481 269.466 22.6869L269.399 20.6881C267.427 20.7549 265.384 21.072 263.272 21.633L263.785 23.566ZM270.431 21.6421C270.362 20.1119 269.955 18.7869 268.999 17.922L267.658 19.405C268.046 19.7561 268.375 20.4471 268.434 21.7329L270.431 21.6421ZM269.017 17.9385C268.098 17.065 266.705 16.7515 265.113 16.7515V18.7515C266.528 18.7515 267.279 19.046 267.64 19.3885L269.017 17.9385ZM265.113 16.7515C263.964 16.7515 262.833 16.9083 261.722 17.2209L262.263 19.1462C263.2 18.8828 264.149 18.7515 265.113 18.7515V16.7515ZM261.714 17.2232C260.65 17.5321 259.442 18.0211 258.098 18.6767L258.975 20.4743C260.255 19.85 261.351 19.4109 262.271 19.1439L261.714 17.2232ZM259.531 19.4672L259.003 14.6192L257.014 14.8358L257.542 19.6838L259.531 19.4672ZM258.444 15.6278C261.235 14.2781 263.999 13.6155 266.745 13.6155V11.6155C263.666 11.6155 260.606 12.3609 257.573 13.8272L258.444 15.6278ZM266.745 13.6155C269.38 13.6155 271.227 14.33 272.455 15.6114L273.899 14.2276C272.183 12.437 269.741 11.6155 266.745 11.6155V13.6155ZM272.462 15.6191C273.703 16.8864 274.433 19.0224 274.433 22.2635H276.433C276.433 18.7846 275.658 16.0246 273.891 14.2199L272.462 15.6191ZM274.433 22.2635V28.7435H276.433V22.2635H274.433ZM274.433 28.7435C274.433 29.9656 274.479 30.9208 274.592 31.5573L276.561 31.2097C276.482 30.7583 276.433 29.9534 276.433 28.7435H274.433ZM274.606 31.626C274.754 32.2162 275.032 32.8703 275.623 33.2395L276.683 31.5435C276.729 31.5723 276.721 31.5873 276.685 31.5234C276.647 31.4577 276.596 31.338 276.547 31.141L274.606 31.626ZM275.746 33.3053C276.237 33.5232 276.879 33.5835 277.545 33.5835V31.5835C276.93 31.5835 276.644 31.5158 276.559 31.4777L275.746 33.3053ZM277.545 33.5835H278.313V31.5835H277.545V33.5835ZM277.318 32.4763L276.79 37.3723L278.779 37.5867L279.307 32.6907L277.318 32.4763ZM277.785 36.4795H275.625V38.4795H277.785V36.4795ZM275.625 36.4795C274.431 36.4795 273.499 36.2609 272.785 35.878L271.84 37.641C272.918 38.2182 274.194 38.4795 275.625 38.4795V36.4795ZM272.809 35.8913C272.064 35.4657 271.51 34.907 271.123 34.2099L269.374 35.1812C269.947 36.212 270.769 37.0293 271.816 37.6278L272.809 35.8913ZM269.501 34.0311C268.863 34.7491 267.954 35.3566 266.725 35.825L267.437 37.694C268.895 37.1385 270.098 36.3699 270.996 35.3599L269.501 34.0311ZM266.737 35.8204C265.541 36.258 264.266 36.4795 262.905 36.4795V38.4795C264.487 38.4795 265.996 38.221 267.424 37.6986L266.737 35.8204ZM265.401 33.9195C266.162 33.9195 266.972 33.7402 267.816 33.4238L267.113 31.5512C266.421 31.8108 265.855 31.9195 265.401 31.9195V33.9195ZM267.849 33.4106C268.723 33.0464 269.499 32.5497 270.167 31.9185L268.794 30.4645C268.31 30.9213 267.742 31.2886 267.08 31.5644L267.849 33.4106ZM270.481 31.1915V25.7195H268.481V31.1915H270.481ZM269.431 24.7208C267.395 24.8225 265.56 25.2657 263.945 26.0731L264.84 27.8619C266.169 27.1974 267.726 26.8085 269.53 26.7183L269.431 24.7208ZM263.945 26.0731C262.238 26.927 261.185 28.2458 261.185 30.0395H263.185C263.185 29.2092 263.603 28.4801 264.84 27.8619L263.945 26.0731ZM261.185 30.0395C261.185 31.1912 261.483 32.2407 262.269 32.977L263.636 31.518C263.398 31.2943 263.185 30.8719 263.185 30.0395H261.185ZM262.294 33.0001C263.074 33.6829 264.184 33.9195 265.401 33.9195V31.9195C264.377 31.9195 263.855 31.7082 263.611 31.4949L262.294 33.0001ZM285.899 35.8475L285.389 36.7076L285.397 36.7126L285.406 36.7175L285.899 35.8475ZM281.627 31.3355L282.518 30.8823L282.518 30.8823L281.627 31.3355ZM281.627 18.7115L282.518 19.1648L282.521 19.1587L281.627 18.7115ZM285.947 14.1995L286.44 15.0696L286.451 15.0633L285.947 14.1995ZM299.387 14.0555L300.382 14.155L300.447 13.5039L299.876 13.1835L299.387 14.0555ZM298.907 18.8555L298.446 19.7433L299.755 20.4218L299.902 18.955L298.907 18.8555ZM288.203 19.5755L288.935 20.2566L288.935 20.2566L288.203 19.5755ZM288.251 30.4715L287.512 31.145L287.519 31.1532L288.251 30.4715ZM298.955 30.9995L299.949 30.8953L299.789 29.3613L298.454 30.1341L298.955 30.9995ZM299.483 36.0395L299.943 36.9273L300.548 36.6134L300.477 35.9353L299.483 36.0395ZM296.411 37.0955L296.199 36.1181L296.194 36.1193L296.411 37.0955ZM292.763 36.4795C290.244 36.4795 288.134 35.9645 286.392 34.9775L285.406 36.7175C287.504 37.9065 289.969 38.4795 292.763 38.4795V36.4795ZM286.409 34.9875C284.678 33.9605 283.389 32.5949 282.518 30.8823L280.735 31.7888C281.785 33.8521 283.344 35.4945 285.389 36.7076L286.409 34.9875ZM282.518 30.8823C281.636 29.1467 281.187 27.2081 281.187 25.0475H279.187C279.187 27.4949 279.698 29.7483 280.735 31.7888L282.518 30.8823ZM281.187 25.0475C281.187 22.8526 281.637 20.8984 282.518 19.1648L280.735 18.2583C279.697 20.3007 279.187 22.5705 279.187 25.0475H281.187ZM282.521 19.1587C283.39 17.4216 284.687 16.0625 286.44 15.0695L285.454 13.3295C283.366 14.5125 281.784 16.1614 280.732 18.2643L282.521 19.1587ZM286.451 15.0633C288.185 14.0514 290.338 13.5195 292.955 13.5195V11.5195C290.068 11.5195 287.548 12.1076 285.443 13.3357L286.451 15.0633ZM292.955 13.5195C295.278 13.5195 297.247 14.0012 298.897 14.9275L299.876 13.1835C297.878 12.0618 295.56 11.5195 292.955 11.5195V13.5195ZM298.392 13.956L297.912 18.756L299.902 18.955L300.382 14.155L298.392 13.956ZM299.367 17.9678C297.504 17.0017 295.555 16.5115 293.531 16.5115V18.5115C295.219 18.5115 296.854 18.9173 298.446 19.7433L299.367 17.9678ZM293.531 16.5115C291.044 16.5115 288.979 17.2733 287.471 18.8944L288.935 20.2566C289.987 19.1257 291.474 18.5115 293.531 18.5115V16.5115ZM287.471 18.8944C285.984 20.4926 285.283 22.5786 285.283 25.0475H287.283C287.283 22.9725 287.862 21.4104 288.935 20.2566L287.471 18.8944ZM285.283 25.0475C285.283 27.4412 286.012 29.4988 287.512 31.145L288.99 29.798C287.866 28.5642 287.283 27.0058 287.283 25.0475H285.283ZM287.519 31.1532C289.046 32.7917 291.069 33.5835 293.483 33.5835V31.5835C291.544 31.5835 290.08 30.9673 288.982 29.7898L287.519 31.1532ZM293.483 33.5835C295.508 33.5835 297.504 32.9952 299.456 31.8649L298.454 30.1341C296.758 31.1158 295.105 31.5835 293.483 31.5835V33.5835ZM297.96 31.1037L298.488 36.1437L300.477 35.9353L299.949 30.8953L297.96 31.1037ZM299.022 35.1518C298.254 35.5505 297.317 35.8765 296.199 36.1181L296.622 38.0729C297.873 37.8026 298.984 37.4246 299.943 36.9273L299.022 35.1518ZM296.194 36.1193C295.119 36.3582 293.976 36.4795 292.763 36.4795V38.4795C294.11 38.4795 295.399 38.3448 296.628 38.0717L296.194 36.1193ZM303.423 0.999509V-0.000491142H302.423V0.999509H303.423ZM309.375 0.999509H310.375V-0.000491142H309.375V0.999509ZM309.375 22.8395H308.375V25.8202L310.172 23.4426L309.375 22.8395ZM316.815 12.9995V11.9995H316.317L316.017 12.3964L316.815 12.9995ZM323.535 12.9995L324.331 13.6038L325.548 11.9995H323.535V12.9995ZM314.799 24.5195L314.002 23.9153L313.557 24.5022L313.985 25.1013L314.799 24.5195ZM323.727 36.9995V37.9995H325.671L324.54 36.4177L323.727 36.9995ZM317.007 36.9995L316.194 37.5818L316.493 37.9995H317.007V36.9995ZM309.375 26.3435L310.188 25.7612L308.375 23.2299V26.3435H309.375ZM309.375 36.9995V37.9995H310.375V36.9995H309.375ZM303.423 36.9995H302.423V37.9995H303.423V36.9995ZM303.423 1.99951H309.375V-0.000491142H303.423V1.99951ZM308.375 0.999509V22.8395H310.375V0.999509H308.375ZM310.172 23.4426L317.612 13.6026L316.017 12.3964L308.577 22.2364L310.172 23.4426ZM316.815 13.9995H323.535V11.9995H316.815V13.9995ZM322.738 12.3953L314.002 23.9153L315.595 25.1238L324.331 13.6038L322.738 12.3953ZM313.985 25.1013L322.913 37.5813L324.54 36.4177L315.612 23.9377L313.985 25.1013ZM323.727 35.9995H317.007V37.9995H323.727V35.9995ZM317.82 36.4172L310.188 25.7612L308.562 26.9258L316.194 37.5818L317.82 36.4172ZM308.375 26.3435V36.9995H310.375V26.3435H308.375ZM309.375 35.9995H303.423V37.9995H309.375V35.9995ZM304.423 36.9995V0.999509H302.423V36.9995H304.423ZM344.653 35.5115L344.167 36.3857L344.172 36.3882L344.653 35.5115ZM338.605 29.4155L337.726 29.8921L337.728 29.8966L338.605 29.4155ZM338.653 11.0795L337.782 10.5868L337.781 10.5903L338.653 11.0795ZM344.845 4.93551L345.326 5.81218L345.329 5.81016L344.845 4.93551ZM362.557 4.69551L363.55 4.80952L363.629 4.12145L363.013 3.80558L362.557 4.69551ZM361.885 10.5515L361.48 11.4662L362.723 12.0153L362.878 10.6655L361.885 10.5515ZM357.901 9.15951L357.629 10.122L357.644 10.126L357.658 10.1297L357.901 9.15951ZM345.901 11.7995L345.149 11.1394L345.144 11.1459L345.901 11.7995ZM345.853 28.5995L345.09 29.2465L345.096 29.2531L345.853 28.5995ZM357.805 31.2875L357.562 30.3174L357.556 30.3188L357.805 31.2875ZM361.885 29.8475L362.878 29.7335L362.723 28.3806L361.479 28.9337L361.885 29.8475ZM362.557 35.7035L362.983 36.6081L363.632 36.3023L363.55 35.5895L362.557 35.7035ZM353.677 36.6715C350.43 36.6715 347.592 35.9837 345.134 34.6348L344.172 36.3882C346.962 37.9194 350.139 38.6715 353.677 38.6715V36.6715ZM345.138 34.6374C342.713 33.2898 340.832 31.3948 339.481 28.9344L337.728 29.8966C339.258 32.6842 341.409 34.8532 344.167 36.3857L345.138 34.6374ZM339.484 28.9389C338.135 26.4504 337.445 23.547 337.445 20.1995H335.445C335.445 23.8281 336.195 27.0686 337.726 29.8921L339.484 28.9389ZM337.445 20.1995C337.445 16.8891 338.148 14.0223 339.525 11.5688L337.781 10.5903C336.213 13.3847 335.445 16.5979 335.445 20.1995H337.445ZM339.523 11.5723C340.937 9.07451 342.868 7.16098 345.326 5.81218L344.364 4.05884C341.573 5.59004 339.376 7.77251 337.782 10.5868L339.523 11.5723ZM345.329 5.81016C347.822 4.42888 350.66 3.72751 353.869 3.72751V1.72751C350.358 1.72751 347.18 2.49814 344.36 4.06086L345.329 5.81016ZM353.869 3.72751C356.962 3.72751 359.698 4.35431 362.101 5.58544L363.013 3.80558C360.295 2.41271 357.239 1.72751 353.869 1.72751V3.72751ZM361.563 4.5815L360.891 10.4375L362.878 10.6655L363.55 4.80952L361.563 4.5815ZM362.289 9.63683C360.868 9.0089 359.486 8.52497 358.143 8.18937L357.658 10.1297C358.876 10.434 360.15 10.8781 361.48 11.4662L362.289 9.63683ZM358.172 8.19706C356.825 7.81705 355.372 7.63151 353.821 7.63151V9.63151C355.213 9.63151 356.481 9.79797 357.629 10.122L358.172 8.19706ZM353.821 7.63151C350.177 7.63151 347.236 8.76494 345.149 11.1394L346.652 12.4596C348.277 10.6101 350.616 9.63151 353.821 9.63151V7.63151ZM345.144 11.1459C343.127 13.4815 342.165 16.5335 342.165 20.1995H344.165C344.165 16.8895 345.027 14.3415 346.657 12.4531L345.144 11.1459ZM342.165 20.1995C342.165 23.8613 343.108 26.9108 345.09 29.2465L346.615 27.9525C345.013 26.0642 344.165 23.5137 344.165 20.1995H342.165ZM345.096 29.2531C347.15 31.632 350.062 32.7675 353.677 32.7675V30.7675C350.507 30.7675 348.203 29.791 346.609 27.9459L345.096 29.2531ZM353.677 32.7675C355.251 32.7675 356.712 32.6001 358.053 32.2562L357.556 30.3188C356.402 30.6149 355.11 30.7675 353.677 30.7675V32.7675ZM358.047 32.2577C359.393 31.9213 360.808 31.4204 362.291 30.7613L361.479 28.9337C360.081 29.5546 358.777 30.0138 357.562 30.3174L358.047 32.2577ZM360.891 29.9615L361.563 35.8175L363.55 35.5895L362.878 29.7335L360.891 29.9615ZM362.13 34.7989C359.482 36.0469 356.668 36.6715 353.677 36.6715V38.6715C356.957 38.6715 360.063 37.9841 362.983 36.6081L362.13 34.7989ZM370.65 35.7995L370.133 36.6557L370.133 36.6557L370.65 35.7995ZM366.378 31.2875L367.263 30.8224L367.263 30.8224L366.378 31.2875ZM366.378 18.7595L367.266 19.2185L367.266 19.2185L366.378 18.7595ZM370.65 14.1995L371.167 15.0557L371.167 15.0557L370.65 14.1995ZM383.802 14.1995L383.285 15.0557L383.285 15.0557L383.802 14.1995ZM383.802 35.7995L384.319 36.6557L383.802 35.7995ZM381.786 30.5195L381.01 29.8882L381.006 29.8937L381.001 29.8993L381.786 30.5195ZM381.786 19.5275L380.995 20.139L381.002 20.149L381.01 20.1588L381.786 19.5275ZM372.618 19.5275L371.835 18.905L371.833 18.9073L372.618 19.5275ZM372.618 30.5195L371.833 31.1397L371.838 31.1453L371.842 31.1508L372.618 30.5195ZM377.226 36.4795C374.849 36.4795 372.842 35.9546 371.167 34.9433L370.133 36.6557C372.169 37.8845 374.546 38.4795 377.226 38.4795V36.4795ZM371.167 34.9433C369.464 33.916 368.169 32.5461 367.263 30.8224L365.493 31.7526C366.571 33.805 368.124 35.443 370.133 36.6557L371.167 34.9433ZM367.263 30.8224C366.351 29.0872 365.89 27.1683 365.89 25.0475H363.89C363.89 27.4707 364.42 29.7119 365.493 31.7526L367.263 30.8224ZM365.89 25.0475C365.89 22.9268 366.351 20.9893 367.266 19.2185L365.489 18.3005C364.42 20.3697 363.89 22.6242 363.89 25.0475H365.89ZM367.266 19.2185C368.173 17.4633 369.468 16.0805 371.167 15.0557L370.133 13.3433C368.12 14.5585 366.567 16.2158 365.489 18.3005L367.266 19.2185ZM371.167 15.0557C372.842 14.0445 374.849 13.5195 377.226 13.5195V11.5195C374.546 11.5195 372.169 12.1146 370.133 13.3433L371.167 15.0557ZM377.226 13.5195C379.602 13.5195 381.609 14.0445 383.285 15.0557L384.319 13.3433C382.282 12.1146 379.905 11.5195 377.226 11.5195V13.5195ZM383.285 15.0557C384.984 16.0805 386.279 17.4633 387.185 19.2185L388.962 18.3005C387.885 16.2158 386.332 14.5585 384.319 13.3433L383.285 15.0557ZM387.185 19.2185C388.1 20.9893 388.562 22.9268 388.562 25.0475H390.562C390.562 22.6242 390.031 20.3697 388.962 18.3005L387.185 19.2185ZM388.562 25.0475C388.562 27.1683 388.1 29.0872 387.189 30.8224L388.959 31.7526C390.031 29.7119 390.562 27.4707 390.562 25.0475H388.562ZM387.189 30.8224C386.283 32.5461 384.988 33.916 383.285 34.9433L384.319 36.6557C386.328 35.443 387.881 33.805 388.959 31.7526L387.189 30.8224ZM383.285 34.9433C381.609 35.9546 379.602 36.4795 377.226 36.4795V38.4795C379.905 38.4795 382.282 37.8845 384.319 36.6557L383.285 34.9433ZM377.226 33.5835C379.444 33.5835 381.27 32.7848 382.57 31.1397L381.001 29.8993C380.126 31.0062 378.911 31.5835 377.226 31.5835V33.5835ZM382.561 31.1508C383.863 29.5514 384.466 27.4838 384.466 25.0475H382.466C382.466 27.1552 381.949 28.7356 381.01 29.8882L382.561 31.1508ZM384.466 25.0475C384.466 22.5831 383.865 20.4979 382.561 18.8962L381.01 20.1588C381.947 21.3091 382.466 22.904 382.466 25.0475H384.466ZM382.577 18.9161C381.28 17.2369 379.453 16.4155 377.226 16.4155V18.4155C378.903 18.4155 380.116 19.0021 380.995 20.139L382.577 18.9161ZM377.226 16.4155C374.999 16.4155 373.163 17.2362 371.835 18.905L373.401 20.15C374.313 19.0028 375.549 18.4155 377.226 18.4155V16.4155ZM371.833 18.9073C370.567 20.5084 369.986 22.5893 369.986 25.0475H371.986C371.986 22.8977 372.492 21.2986 373.402 20.1477L371.833 18.9073ZM369.986 25.0475C369.986 27.4775 370.569 29.5409 371.833 31.1397L373.402 29.8993C372.491 28.7461 371.986 27.1615 371.986 25.0475H369.986ZM371.842 31.1508C373.173 32.7854 375.007 33.5835 377.226 33.5835V31.5835C375.54 31.5835 374.303 31.0056 373.393 29.8882L371.842 31.1508ZM427.737 15.5435L426.951 16.1619L426.957 16.169L426.962 16.176L427.737 15.5435ZM430.089 36.9995V37.9995H431.089V36.9995H430.089ZM424.137 36.9995H423.137V37.9995H424.137V36.9995ZM423.081 19.0955L423.913 18.5408L423.913 18.5408L423.081 19.0955ZM416.073 19.1435L416.87 19.7474L416.874 19.7417L416.879 19.7359L416.073 19.1435ZM414.873 36.9995V37.9995H415.873V36.9995H414.873ZM408.921 36.9995H407.921V37.9995H408.921V36.9995ZM407.817 19.0955L408.637 18.5237L408.637 18.5237L407.817 19.0955ZM399.657 19.5755L398.908 18.9133L398.657 19.197V19.5755H399.657ZM399.657 36.9995V37.9995H400.657V36.9995H399.657ZM393.705 36.9995H392.705V37.9995H393.705V36.9995ZM393.705 12.9995V11.9995H392.705V12.9995H393.705ZM398.793 12.9995L399.788 12.9L399.698 11.9995H398.793V12.9995ZM398.985 14.9195L397.99 15.019L398.161 16.7255L399.562 15.7365L398.985 14.9195ZM412.905 15.9275L412.078 16.4905L412.846 17.6178L413.69 16.5464L412.905 15.9275ZM416.169 13.4795L416.563 14.3987L416.563 14.3987L416.169 13.4795ZM420.633 13.6155C423.623 13.6155 425.657 14.5175 426.951 16.1619L428.523 14.9251C426.745 12.6655 424.043 11.6155 420.633 11.6155V13.6155ZM426.962 16.176C428.335 17.8571 429.089 20.3057 429.089 23.6555H431.089C431.089 20.0293 430.275 17.0699 428.511 14.911L426.962 16.176ZM429.089 23.6555V36.9995H431.089V23.6555H429.089ZM430.089 35.9995H424.137V37.9995H430.089V35.9995ZM425.137 36.9995V24.0875H423.137V36.9995H425.137ZM425.137 24.0875C425.137 21.7539 424.783 19.8461 423.913 18.5408L422.249 19.6502C422.787 20.4569 423.137 21.8771 423.137 24.0875H425.137ZM423.913 18.5408C422.975 17.1336 421.461 16.5115 419.625 16.5115V18.5115C420.989 18.5115 421.779 18.9454 422.249 19.6502L423.913 18.5408ZM419.625 16.5115C417.797 16.5115 416.288 17.1632 415.267 18.5511L416.879 19.7359C417.458 18.9479 418.317 18.5115 419.625 18.5115V16.5115ZM415.276 18.5397C414.295 19.8345 413.873 21.5844 413.873 23.6555H415.873C415.873 21.8226 416.251 20.5645 416.87 19.7474L415.276 18.5397ZM413.873 23.6555V36.9995H415.873V23.6555H413.873ZM414.873 35.9995H408.921V37.9995H414.873V35.9995ZM409.921 36.9995V24.0875H407.921V36.9995H409.921ZM409.921 24.0875C409.921 21.7488 409.55 19.833 408.637 18.5237L406.997 19.6673C407.556 20.47 407.921 21.8823 407.921 24.0875H409.921ZM408.637 18.5237C407.668 17.1335 406.15 16.5115 404.313 16.5115V18.5115C405.675 18.5115 406.493 18.9455 406.997 19.6673L408.637 18.5237ZM404.313 16.5115C402.147 16.5115 400.319 17.3157 398.908 18.9133L400.406 20.2377C401.426 19.0833 402.702 18.5115 404.313 18.5115V16.5115ZM398.657 19.5755V36.9995H400.657V19.5755H398.657ZM399.657 35.9995H393.705V37.9995H399.657V35.9995ZM394.705 36.9995V12.9995H392.705V36.9995H394.705ZM393.705 13.9995H398.793V11.9995H393.705V13.9995ZM397.798 13.099L397.99 15.019L399.98 14.82L399.788 12.9L397.798 13.099ZM399.562 15.7365C401.578 14.3128 403.731 13.6155 406.041 13.6155V11.6155C403.295 11.6155 400.743 12.4542 398.408 14.1025L399.562 15.7365ZM406.041 13.6155C408.84 13.6155 410.791 14.6002 412.078 16.4905L413.731 15.3645C412.011 12.8388 409.386 11.6155 406.041 11.6155V13.6155ZM413.69 16.5464C414.41 15.6329 415.359 14.9148 416.563 14.3987L415.775 12.5604C414.291 13.1963 413.064 14.1101 412.119 15.3086L413.69 16.5464ZM416.563 14.3987C417.769 13.8819 419.121 13.6155 420.633 13.6155V11.6155C418.881 11.6155 417.257 11.9251 415.775 12.5604L416.563 14.3987ZM469.456 15.5435L468.67 16.1619L468.675 16.169L468.681 16.176L469.456 15.5435ZM471.808 36.9995V37.9995H472.808V36.9995H471.808ZM465.856 36.9995H464.856V37.9995H465.856V36.9995ZM464.8 19.0955L465.632 18.5408L465.632 18.5408L464.8 19.0955ZM457.792 19.1435L458.589 19.7474L458.593 19.7417L458.597 19.7359L457.792 19.1435ZM456.592 36.9995V37.9995H457.592V36.9995H456.592ZM450.64 36.9995H449.64V37.9995H450.64V36.9995ZM449.536 19.0955L450.356 18.5237L450.356 18.5237L449.536 19.0955ZM441.376 19.5755L440.626 18.9133L440.376 19.197V19.5755H441.376ZM441.376 36.9995V37.9995H442.376V36.9995H441.376ZM435.424 36.9995H434.424V37.9995H435.424V36.9995ZM435.424 12.9995V11.9995H434.424V12.9995H435.424ZM440.512 12.9995L441.507 12.9L441.417 11.9995H440.512V12.9995ZM440.704 14.9195L439.709 15.019L439.879 16.7255L441.28 15.7365L440.704 14.9195ZM454.624 15.9275L453.797 16.4905L454.565 17.6178L455.409 16.5464L454.624 15.9275ZM457.888 13.4795L458.282 14.3987L458.282 14.3987L457.888 13.4795ZM462.352 13.6155C465.341 13.6155 467.376 14.5175 468.67 16.1619L470.242 14.9251C468.463 12.6655 465.762 11.6155 462.352 11.6155V13.6155ZM468.681 16.176C470.054 17.8571 470.808 20.3057 470.808 23.6555H472.808C472.808 20.0293 471.993 17.0699 470.23 14.911L468.681 16.176ZM470.808 23.6555V36.9995H472.808V23.6555H470.808ZM471.808 35.9995H465.856V37.9995H471.808V35.9995ZM466.856 36.9995V24.0875H464.856V36.9995H466.856ZM466.856 24.0875C466.856 21.7539 466.502 19.8461 465.632 18.5408L463.968 19.6502C464.505 20.4569 464.856 21.8771 464.856 24.0875H466.856ZM465.632 18.5408C464.694 17.1336 463.179 16.5115 461.344 16.5115V18.5115C462.708 18.5115 463.498 18.9454 463.968 19.6502L465.632 18.5408ZM461.344 16.5115C459.516 16.5115 458.007 17.1632 456.986 18.5511L458.597 19.7359C459.177 18.9479 460.035 18.5115 461.344 18.5115V16.5115ZM456.995 18.5397C456.014 19.8345 455.592 21.5844 455.592 23.6555H457.592C457.592 21.8226 457.97 20.5645 458.589 19.7474L456.995 18.5397ZM455.592 23.6555V36.9995H457.592V23.6555H455.592ZM456.592 35.9995H450.64V37.9995H456.592V35.9995ZM451.64 36.9995V24.0875H449.64V36.9995H451.64ZM451.64 24.0875C451.64 21.7488 451.269 19.833 450.356 18.5237L448.715 19.6673C449.275 20.47 449.64 21.8823 449.64 24.0875H451.64ZM450.356 18.5237C449.387 17.1335 447.869 16.5115 446.032 16.5115V18.5115C447.394 18.5115 448.212 18.9455 448.715 19.6673L450.356 18.5237ZM446.032 16.5115C443.866 16.5115 442.038 17.3157 440.626 18.9133L442.125 20.2377C443.145 19.0833 444.421 18.5115 446.032 18.5115V16.5115ZM440.376 19.5755V36.9995H442.376V19.5755H440.376ZM441.376 35.9995H435.424V37.9995H441.376V35.9995ZM436.424 36.9995V12.9995H434.424V36.9995H436.424ZM435.424 13.9995H440.512V11.9995H435.424V13.9995ZM439.517 13.099L439.709 15.019L441.699 14.82L441.507 12.9L439.517 13.099ZM441.28 15.7365C443.297 14.3128 445.45 13.6155 447.76 13.6155V11.6155C445.014 11.6155 442.462 12.4542 440.127 14.1025L441.28 15.7365ZM447.76 13.6155C450.558 13.6155 452.51 14.6002 453.797 16.4905L455.45 15.3645C453.73 12.8388 451.105 11.6155 447.76 11.6155V13.6155ZM455.409 16.5464C456.129 15.6329 457.077 14.9148 458.282 14.3987L457.494 12.5604C456.01 13.1963 454.782 14.1101 453.838 15.3086L455.409 16.5464ZM458.282 14.3987C459.487 13.8819 460.839 13.6155 462.352 13.6155V11.6155C460.6 11.6155 458.976 11.9251 457.494 12.5604L458.282 14.3987ZM497.883 12.9995H498.883V11.9995H497.883V12.9995ZM497.883 36.9995V37.9995H498.883V36.9995H497.883ZM492.315 36.9995L491.317 37.066L491.379 37.9995H492.315V36.9995ZM492.219 35.5595L493.217 35.493L493.095 33.6684L491.625 34.7553L492.219 35.5595ZM489.675 36.9515L490.019 37.8904L490.033 37.8854L490.046 37.88L489.675 36.9515ZM479.115 34.4075L478.327 35.0232L478.333 35.0307L479.115 34.4075ZM476.715 12.9995V11.9995H475.715V12.9995H476.715ZM482.667 12.9995H483.667V11.9995H482.667V12.9995ZM483.771 30.9035L482.943 31.4638L482.952 31.4779L482.962 31.4917L483.771 30.9035ZM491.931 30.4715L492.69 31.1223L492.931 30.8414V30.4715H491.931ZM491.931 12.9995V11.9995H490.931V12.9995H491.931ZM496.883 12.9995V36.9995H498.883V12.9995H496.883ZM497.883 35.9995H492.315V37.9995H497.883V35.9995ZM493.313 36.933L493.217 35.493L491.221 35.626L491.317 37.066L493.313 36.933ZM491.625 34.7553C490.965 35.2425 490.194 35.6667 489.304 36.023L490.046 37.88C491.076 37.4683 492 36.9646 492.813 36.3637L491.625 34.7553ZM489.331 36.0126C488.466 36.3298 487.654 36.4795 486.891 36.4795V38.4795C487.92 38.4795 488.964 38.2772 490.019 37.8904L489.331 36.0126ZM486.891 36.4795C483.528 36.4795 481.277 35.5164 479.897 33.7843L478.333 35.0307C480.217 37.3946 483.15 38.4795 486.891 38.4795V36.4795ZM479.903 33.7919C478.485 31.9771 477.715 29.3902 477.715 25.9115H475.715C475.715 29.6648 476.545 32.7419 478.327 35.0232L479.903 33.7919ZM477.715 25.9115V12.9995H475.715V25.9115H477.715ZM476.715 13.9995H482.667V11.9995H476.715V13.9995ZM481.667 12.9995V25.9115H483.667V12.9995H481.667ZM481.667 25.9115C481.667 28.2257 482.041 30.1304 482.943 31.4638L484.599 30.3432C484.029 29.5007 483.667 28.0773 483.667 25.9115H481.667ZM482.962 31.4917C483.969 32.8762 485.532 33.4875 487.419 33.4875V31.4875C485.978 31.4875 485.109 31.0429 484.58 30.3153L482.962 31.4917ZM487.419 33.4875C489.551 33.4875 491.338 32.6999 492.69 31.1223L491.172 29.8207C490.22 30.9311 488.999 31.4875 487.419 31.4875V33.4875ZM492.931 30.4715V12.9995H490.931V30.4715H492.931ZM491.931 13.9995H497.883V11.9995H491.931V13.9995ZM522.303 15.5915L523.094 14.9793L523.094 14.9793L522.303 15.5915ZM524.607 36.9995V37.9995H525.607V36.9995H524.607ZM518.655 36.9995H517.655V37.9995H518.655V36.9995ZM517.503 19.1435L516.675 19.7038L516.685 19.7179L516.695 19.7317L517.503 19.1435ZM509.391 19.5755L508.633 18.9233L508.391 19.2045V19.5755H509.391ZM509.391 36.9995V37.9995H510.391V36.9995H509.391ZM503.439 36.9995H502.439V37.9995H503.439V36.9995ZM503.439 12.9995V11.9995H502.439V12.9995H503.439ZM509.007 12.9995L510.006 12.9425L509.952 11.9995H509.007V12.9995ZM509.103 14.6795L508.105 14.7366L508.206 16.5028L509.667 15.5055L509.103 14.6795ZM515.535 13.6155C518.266 13.6155 520.202 14.5112 521.513 16.2037L523.094 14.9793C521.332 12.7038 518.756 11.6155 515.535 11.6155V13.6155ZM521.513 16.2037C522.873 17.9613 523.607 20.3943 523.607 23.6075H525.607C525.607 20.1007 524.805 17.1897 523.094 14.9793L521.513 16.2037ZM523.607 23.6075V36.9995H525.607V23.6075H523.607ZM524.607 35.9995H518.655V37.9995H524.607V35.9995ZM519.655 36.9995V24.0875H517.655V36.9995H519.655ZM519.655 24.0875C519.655 21.7716 519.265 19.8663 518.312 18.5553L516.695 19.7317C517.277 20.5327 517.655 21.9234 517.655 24.0875H519.655ZM518.332 18.5832C517.36 17.1469 515.8 16.5115 513.903 16.5115V18.5115C515.335 18.5115 516.175 18.9642 516.675 19.7038L518.332 18.5832ZM513.903 16.5115C511.79 16.5115 510.008 17.3253 508.633 18.9233L510.149 20.2278C511.142 19.0738 512.369 18.5115 513.903 18.5115V16.5115ZM508.391 19.5755V36.9995H510.391V19.5755H508.391ZM509.391 35.9995H503.439V37.9995H509.391V35.9995ZM504.439 36.9995V12.9995H502.439V36.9995H504.439ZM503.439 13.9995H509.007V11.9995H503.439V13.9995ZM508.009 13.0566L508.105 14.7366L510.102 14.6225L510.006 12.9425L508.009 13.0566ZM509.667 15.5055C511.53 14.234 513.48 13.6155 515.535 13.6155V11.6155C513.047 11.6155 510.709 12.373 508.54 13.8536L509.667 15.5055ZM529.924 3.39951V2.39951H528.924V3.39951H529.924ZM535.876 3.39951H536.876V2.39951H535.876V3.39951ZM535.876 9.35151V10.3515H536.876V9.35151H535.876ZM529.924 9.35151H528.924V10.3515H529.924V9.35151ZM529.924 12.9995V11.9995H528.924V12.9995H529.924ZM535.876 12.9995H536.876V11.9995H535.876V12.9995ZM535.876 36.9995V37.9995H536.876V36.9995H535.876ZM529.924 36.9995H528.924V37.9995H529.924V36.9995ZM529.924 4.39951H535.876V2.39951H529.924V4.39951ZM534.876 3.39951V9.35151H536.876V3.39951H534.876ZM535.876 8.35151H529.924V10.3515H535.876V8.35151ZM530.924 9.35151V3.39951H528.924V9.35151H530.924ZM529.924 13.9995H535.876V11.9995H529.924V13.9995ZM534.876 12.9995V36.9995H536.876V12.9995H534.876ZM535.876 35.9995H529.924V37.9995H535.876V35.9995ZM530.924 36.9995V12.9995H528.924V36.9995H530.924ZM544.479 35.6555L543.725 36.3127L543.734 36.3223L544.479 35.6555ZM542.847 17.8955H543.847V16.8955H542.847V17.8955ZM539.439 17.8955L538.445 17.7883L538.325 18.8955H539.439V17.8955ZM539.967 12.9995V11.9995H539.069L538.973 12.8923L539.967 12.9995ZM542.847 12.9995V13.9995H543.847V12.9995H542.847ZM542.847 7.71951L542.743 6.72496L541.847 6.81887V7.71951H542.847ZM548.799 7.09551H549.799V5.98519L548.695 6.10096L548.799 7.09551ZM548.799 12.9995H547.799V13.9995H548.799V12.9995ZM554.079 12.9995H555.079V11.9995H554.079V12.9995ZM554.079 17.8955V18.8955H555.079V17.8955H554.079ZM548.799 17.8955V16.8955H547.799V17.8955H548.799ZM548.991 31.4315L548.021 31.674L548.03 31.7113L548.042 31.7477L548.991 31.4315ZM549.903 32.3915L549.567 33.3333L549.605 33.3471L549.645 33.3577L549.903 32.3915ZM554.079 32.5835L555.073 32.6907L555.193 31.5835H554.079V32.5835ZM553.551 37.4795V38.4795H554.449L554.545 37.5867L553.551 37.4795ZM549.279 36.4795C547.362 36.4795 546.07 35.9344 545.224 34.9887L543.734 36.3223C545.064 37.8087 546.971 38.4795 549.279 38.4795V36.4795ZM545.233 34.9984C544.311 33.941 543.847 32.6894 543.847 31.1915H541.847C541.847 33.1496 542.471 34.874 543.725 36.3126L545.233 34.9984ZM543.847 31.1915V17.8955H541.847V31.1915H543.847ZM542.847 16.8955H539.439V18.8955H542.847V16.8955ZM540.433 18.0027L540.961 13.1067L538.973 12.8923L538.445 17.7883L540.433 18.0027ZM539.967 13.9995H542.847V11.9995H539.967V13.9995ZM543.847 12.9995V7.71951H541.847V12.9995H543.847ZM542.951 8.71406L548.903 8.09006L548.695 6.10096L542.743 6.72496L542.951 8.71406ZM547.799 7.09551V12.9995H549.799V7.09551H547.799ZM548.799 13.9995H554.079V11.9995H548.799V13.9995ZM553.079 12.9995V17.8955H555.079V12.9995H553.079ZM554.079 16.8955H548.799V18.8955H554.079V16.8955ZM547.799 17.8955V28.7435H549.799V17.8955H547.799ZM547.799 28.7435C547.799 30.0223 547.86 31.0299 548.021 31.674L549.961 31.189C549.866 30.8091 549.799 30.0248 549.799 28.7435H547.799ZM548.042 31.7477C548.292 32.4978 548.809 33.0625 549.567 33.3333L550.239 31.4498C550.101 31.4005 550.01 31.3252 549.94 31.1153L548.042 31.7477ZM549.645 33.3577C550.266 33.5232 551.233 33.5835 552.447 33.5835V31.5835C551.229 31.5835 550.5 31.5158 550.161 31.4253L549.645 33.3577ZM552.447 33.5835H554.079V31.5835H552.447V33.5835ZM553.085 32.4763L552.557 37.3723L554.545 37.5867L555.073 32.6907L553.085 32.4763ZM553.551 36.4795H549.279V38.4795H553.551V36.4795ZM565.203 35.4155L566.13 35.7898L566.289 35.3963L566.116 35.0086L565.203 35.4155ZM555.219 12.9995V11.9995H553.679L554.305 13.4064L555.219 12.9995ZM561.843 12.9995L562.772 12.6301L562.521 11.9995H561.843V12.9995ZM567.987 28.4555L567.058 28.8249L567.98 31.1445L568.914 28.8299L567.987 28.4555ZM574.227 12.9995V11.9995H573.552L573.3 12.6251L574.227 12.9995ZM580.851 12.9995L581.772 13.3882L582.358 11.9995H580.851V12.9995ZM565.827 48.6155V49.6155H566.49L566.748 49.0042L565.827 48.6155ZM559.875 48.6155L558.948 48.2412L558.393 49.6155H559.875V48.6155ZM566.116 35.0086L556.132 12.5926L554.305 13.4064L564.289 35.8224L566.116 35.0086ZM555.219 13.9995H561.843V11.9995H555.219V13.9995ZM560.914 13.3689L567.058 28.8249L568.916 28.0861L562.772 12.6301L560.914 13.3689ZM568.914 28.8299L575.154 13.3739L573.3 12.6251L567.06 28.0811L568.914 28.8299ZM574.227 13.9995H580.851V11.9995H574.227V13.9995ZM579.93 12.6108L564.906 48.2268L566.748 49.0042L581.772 13.3882L579.93 12.6108ZM565.827 47.6155H559.875V49.6155H565.827V47.6155ZM560.802 48.9898L566.13 35.7898L564.276 35.0412L558.948 48.2412L560.802 48.9898Z" fill="url(#paint0_linear)"/>
<defs>
<linearGradient id="paint0_linear" x1="1.99903" y1="-5.31973" x2="524.278" y2="182.035" gradientUnits="userSpaceOnUse">
<stop stop-color="#0094FF"/>
<stop offset="0.119587" stop-color="#5AB2F1"/>
<stop offset="0.238659" stop-color="#D817F8"/>
<stop offset="0.357519" stop-color="#EF89EC"/>
<stop offset="0.447654" stop-color="#FE6734"/>
<stop offset="0.545797" stop-color="#EE582B"/>
<stop offset="0.62075" stop-color="#FC7752"/>
<stop offset="0.716219" stop-color="#ED805B"/>
<stop offset="0.803808" stop-color="#78E0EE" stop-opacity="0.89"/>
<stop offset="0.853464" stop-color="#83C2F8"/>
<stop offset="0.922616" stop-color="#36A8FA"/>
<stop offset="1" stop-color="#2089F9"/>
</linearGradient>
</defs>
</svg>
